<svg width="20" height="20" viewBox="0 0 20 20" fill="none" xmlns="http://www.w3.org/2000/svg">
<path d="M17.5 1.875H2.5C2.16848 1.875 1.85054 2.0067 1.61612 2.24112C1.3817 2.47554 1.25 2.79348 1.25 3.125V9.375C1.25 9.70652 1.3817 10.0245 1.61612 10.2589C1.85054 10.4933 2.16848 10.625 2.5 10.625H17.5C17.8315 10.625 18.1495 10.4933 18.3839 10.2589C18.6183 10.0245 18.75 9.70652 18.75 9.375V3.125C18.75 2.79348 18.6183 2.47554 18.3839 2.24112C18.1495 2.0067 17.8315 1.875 17.5 1.875ZM17.5 3.125V7.5H2.5V3.125H17.5ZM2.5 9.375V8.75H17.5V9.375H2.5ZM15.625 6.25C15.625 6.08424 15.6908 5.92527 15.8081 5.80806C15.9253 5.69085 16.0842 5.625 16.25 5.625C16.3736 5.625 16.4945 5.66166 16.5972 5.73033C16.7 5.79901 16.7801 5.89662 16.8274 6.01082C16.8747 6.12503 16.8871 6.25069 16.863 6.37193C16.8389 6.49317 16.7794 6.60453 16.6919 6.69194C16.6045 6.77935 16.4932 6.83888 16.3719 6.86299C16.2507 6.88711 16.125 6.87473 16.0108 6.82743C15.8966 6.78012 15.799 6.70001 15.7303 6.59723C15.6617 6.49445 15.625 6.37361 15.625 6.25ZM13.75 6.25C13.75 6.08424 13.8158 5.92527 13.9331 5.80806C14.0503 5.69085 14.2092 5.625 14.375 5.625C14.4986 5.625 14.6195 5.66166 14.7222 5.73033C14.825 5.79901 14.9051 5.89662 14.9524 6.01082C14.9997 6.12503 15.0121 6.25069 14.988 6.37193C14.9639 6.49317 14.9044 6.60453 14.8169 6.69194C14.7295 6.77935 14.6182 6.83888 14.4969 6.86299C14.3757 6.88711 14.25 6.87473 14.1358 6.82743C14.0216 6.78012 13.924 6.70001 13.8553 6.59723C13.7867 6.49445 13.75 6.37361 13.75 6.25ZM10.4375 14.55C10.6904 14.7532 10.8945 15.0106 11.0348 15.3032C11.175 15.5958 11.2478 15.9162 11.2478 16.2406C11.2478 16.5651 11.175 16.8854 11.0348 17.178C10.8945 17.4706 10.6904 17.728 10.4375 17.9312C10.3809 17.9907 10.3131 18.0384 10.238 18.0716C10.163 18.1049 10.0821 18.123 10 18.125C9.87714 18.1245 9.75715 18.0878 9.65504 18.0195C9.55292 17.9511 9.47321 17.8542 9.42586 17.7409C9.37851 17.6275 9.36563 17.5027 9.38882 17.382C9.41201 17.2614 9.47025 17.1502 9.55625 17.0625C9.86875 16.75 10.0063 16.6 10.0063 16.25C10.0063 15.9 9.86875 15.75 9.5625 15.4437C9.31058 15.2399 9.10741 14.9822 8.96785 14.6897C8.82829 14.3972 8.75586 14.0772 8.75586 13.7531C8.75586 13.429 8.82829 13.109 8.96785 12.8165C9.10741 12.524 9.31058 12.2664 9.5625 12.0625C9.62077 12.0042 9.68996 11.958 9.76609 11.9265C9.84223 11.8949 9.92384 11.8787 10.0063 11.8787C10.0887 11.8787 10.1703 11.8949 10.2464 11.9265C10.3225 11.958 10.3917 12.0042 10.45 12.0625C10.5083 12.1208 10.5545 12.19 10.586 12.2661C10.6176 12.3422 10.6338 12.4238 10.6338 12.5063C10.6338 12.5887 10.6176 12.6703 10.586 12.7464C10.5545 12.8225 10.5083 12.8917 10.45 12.95C10.1437 13.2562 10.0063 13.4062 10.0063 13.7563C10.0063 14.1062 10.1375 14.2438 10.4375 14.55ZM13.5625 14.55C13.8154 14.7532 14.0195 15.0106 14.1598 15.3032C14.3 15.5958 14.3728 15.9162 14.3728 16.2406C14.3728 16.5651 14.3 16.8854 14.1598 17.178C14.0195 17.4706 13.8154 17.728 13.5625 17.9312C13.5059 17.9907 13.4381 18.0384 13.363 18.0716C13.288 18.1049 13.2071 18.123 13.125 18.125C13.0021 18.1245 12.8822 18.0878 12.78 18.0195C12.6779 17.9511 12.5982 17.8542 12.5509 17.7409C12.5035 17.6275 12.4906 17.5027 12.5138 17.382C12.537 17.2614 12.5952 17.1502 12.6813 17.0625C12.9938 16.75 13.1313 16.6 13.1313 16.25C13.1313 15.9 12.9937 15.75 12.6875 15.4437C12.4356 15.2399 12.2324 14.9822 12.0929 14.6897C11.9533 14.3972 11.8809 14.0772 11.8809 13.7531C11.8809 13.429 11.9533 13.109 12.0929 12.8165C12.2324 12.524 12.4356 12.2664 12.6875 12.0625C12.7458 12.0042 12.815 11.958 12.8911 11.9265C12.9672 11.8949 13.0488 11.8787 13.1313 11.8787C13.2137 11.8787 13.2953 11.8949 13.3714 11.9265C13.4475 11.958 13.5167 12.0042 13.575 12.0625C13.6333 12.1208 13.6795 12.19 13.711 12.2661C13.7426 12.3422 13.7588 12.4238 13.7588 12.5063C13.7588 12.5887 13.7426 12.6703 13.711 12.7464C13.6795 12.8225 13.6333 12.8917 13.575 12.95C13.2687 13.2562 13.1313 13.4062 13.1313 13.7563C13.1313 14.1062 13.2625 14.2438 13.5625 14.55ZM7.3125 14.55C7.56544 14.7532 7.76955 15.0106 7.90979 15.3032C8.05004 15.5958 8.12285 15.9162 8.12285 16.2406C8.12285 16.5651 8.05004 16.8854 7.90979 17.178C7.76955 17.4706 7.56544 17.728 7.3125 17.9312C7.25588 17.9907 7.18809 18.0384 7.11303 18.0716C7.03796 18.1049 6.95708 18.123 6.875 18.125C6.75214 18.1245 6.63215 18.0878 6.53004 18.0195C6.42792 17.9511 6.34821 17.8542 6.30086 17.7409C6.25351 17.6275 6.24063 17.5027 6.26382 17.382C6.28701 17.2614 6.34525 17.1502 6.43125 17.0625C6.74375 16.75 6.88125 16.6 6.88125 16.25C6.88125 15.9 6.74375 15.75 6.4375 15.4437C6.18558 15.2399 5.98241 14.9822 5.84285 14.6897C5.70329 14.3972 5.63086 14.0772 5.63086 13.7531C5.63086 13.429 5.70329 13.109 5.84285 12.8165C5.98241 12.524 6.18558 12.2664 6.4375 12.0625C6.55519 11.9448 6.71481 11.8787 6.88125 11.8787C7.04769 11.8787 7.20731 11.9448 7.325 12.0625C7.44269 12.1802 7.50881 12.3398 7.50881 12.5063C7.50881 12.6727 7.44269 12.8323 7.325 12.95C7.01875 13.2562 6.88125 13.4062 6.88125 13.7563C6.88125 14.1062 7.0125 14.2438 7.3125 14.55Z" fill="#464B51"/>
</svg>
