<svg width="20" height="20" viewBox="0 0 20 20" fill="none" xmlns="http://www.w3.org/2000/svg">
<path d="M15 1.25H5C4.66848 1.25 4.35054 1.3817 4.11612 1.61612C3.8817 1.85054 3.75 2.16848 3.75 2.5V17.5C3.75 17.8315 3.8817 18.1495 4.11612 18.3839C4.35054 18.6183 4.66848 18.75 5 18.75H15C15.3315 18.75 15.6495 18.6183 15.8839 18.3839C16.1183 18.1495 16.25 17.8315 16.25 17.5V2.5C16.25 2.16848 16.1183 1.85054 15.8839 1.61612C15.6495 1.3817 15.3315 1.25 15 1.25ZM5 17.5V2.5H15V17.5H5ZM10 8.75C9.25832 8.75 8.5333 8.96993 7.91661 9.38199C7.29993 9.79404 6.81928 10.3797 6.53545 11.0649C6.25162 11.7502 6.17736 12.5042 6.32206 13.2316C6.46675 13.959 6.8239 14.6272 7.34835 15.1517C7.8728 15.6761 8.54098 16.0333 9.26841 16.1779C9.99584 16.3226 10.7498 16.2484 11.4351 15.9645C12.1203 15.6807 12.706 15.2001 13.118 14.5834C13.5301 13.9667 13.75 13.2417 13.75 12.5C13.75 11.5054 13.3549 10.5516 12.6517 9.84835C11.9484 9.14509 10.9946 8.75 10 8.75ZM10 15C9.50555 15 9.0222 14.8534 8.61107 14.5787C8.19995 14.304 7.87952 13.9135 7.6903 13.4567C7.50108 12.9999 7.45157 12.4972 7.54804 12.0123C7.6445 11.5273 7.8826 11.0819 8.23223 10.7322C8.58186 10.3826 9.02732 10.1445 9.51227 10.048C9.99723 9.95157 10.4999 10.0011 10.9567 10.1903C11.4135 10.3795 11.804 10.7 12.0787 11.1111C12.3534 11.5222 12.5 12.0055 12.5 12.5C12.5 13.163 12.2366 13.7989 11.7678 14.2678C11.2989 14.7366 10.663 15 10 15ZM10 7.5C10.3708 7.5 10.7334 7.39003 11.0417 7.18401C11.35 6.97798 11.5904 6.68514 11.7323 6.34253C11.8742 5.99992 11.9113 5.62292 11.839 5.25921C11.7666 4.89549 11.588 4.5614 11.3258 4.29917C11.0636 4.03695 10.7295 3.85838 10.3658 3.78603C10.0021 3.71368 9.62508 3.75081 9.28247 3.89273C8.93986 4.03464 8.64702 4.27496 8.44099 4.58331C8.23497 4.89165 8.125 5.25416 8.125 5.625C8.125 6.12228 8.32254 6.5992 8.67417 6.95083C9.0258 7.30246 9.50272 7.5 10 7.5ZM10 5C10.1236 5 10.2445 5.03666 10.3472 5.10533C10.45 5.17401 10.5301 5.27162 10.5774 5.38582C10.6247 5.50003 10.6371 5.62569 10.613 5.74693C10.5889 5.86817 10.5293 5.97953 10.4419 6.06694C10.3545 6.15435 10.2432 6.21388 10.1219 6.23799C10.0007 6.26211 9.87503 6.24973 9.76082 6.20243C9.64662 6.15512 9.54901 6.07501 9.48033 5.97223C9.41166 5.86945 9.375 5.74861 9.375 5.625C9.375 5.45924 9.44085 5.30027 9.55806 5.18306C9.67527 5.06585 9.83424 5 10 5ZM10 10.625C9.62916 10.625 9.26665 10.735 8.95831 10.941C8.64996 11.147 8.40964 11.4399 8.26773 11.7825C8.12581 12.1251 8.08868 12.5021 8.16103 12.8658C8.23337 13.2295 8.41195 13.5636 8.67417 13.8258C8.9364 14.088 9.27049 14.2666 9.63421 14.339C9.99792 14.4113 10.3749 14.3742 10.7175 14.2323C11.0601 14.0904 11.353 13.85 11.559 13.5417C11.765 13.2334 11.875 12.8708 11.875 12.5C11.875 12.0027 11.6775 11.5258 11.3258 11.1742C10.9742 10.8225 10.4973 10.625 10 10.625ZM10 13.125C9.87639 13.125 9.75555 13.0883 9.65277 13.0197C9.54999 12.951 9.46988 12.8534 9.42257 12.7392C9.37527 12.625 9.36289 12.4993 9.38701 12.3781C9.41112 12.2568 9.47065 12.1455 9.55806 12.0581C9.64547 11.9706 9.75683 11.9111 9.87807 11.887C9.99931 11.8629 10.125 11.8753 10.2392 11.9226C10.3534 11.9699 10.451 12.05 10.5197 12.1528C10.5883 12.2555 10.625 12.3764 10.625 12.5C10.625 12.6658 10.5592 12.8247 10.4419 12.9419C10.3247 13.0592 10.1658 13.125 10 13.125ZM14.375 3.75C14.375 3.87361 14.3383 3.99445 14.2697 4.09723C14.201 4.20001 14.1034 4.28012 13.9892 4.32742C13.875 4.37473 13.7493 4.38711 13.6281 4.36299C13.5068 4.33888 13.3955 4.27935 13.3081 4.19194C13.2206 4.10453 13.1611 3.99317 13.137 3.87193C13.1129 3.75069 13.1253 3.62503 13.1726 3.51082C13.2199 3.39662 13.3 3.29901 13.4028 3.23033C13.5055 3.16166 13.6264 3.125 13.75 3.125C13.9158 3.125 14.0747 3.19085 14.1919 3.30806C14.3092 3.42527 14.375 3.58424 14.375 3.75ZM5.625 3.75C5.625 3.58424 5.69085 3.42527 5.80806 3.30806C5.92527 3.19085 6.08424 3.125 6.25 3.125C6.37361 3.125 6.49445 3.16166 6.59723 3.23033C6.70001 3.29901 6.78012 3.39662 6.82742 3.51082C6.87473 3.62503 6.88711 3.75069 6.86299 3.87193C6.83888 3.99317 6.77935 4.10453 6.69194 4.19194C6.60453 4.27935 6.49317 4.33888 6.37193 4.36299C6.25069 4.38711 6.12503 4.37473 6.01082 4.32742C5.89662 4.28012 5.79901 4.20001 5.73033 4.09723C5.66166 3.99445 5.625 3.87361 5.625 3.75Z" fill="#464B51"/>
</svg>
