<svg width="20" height="20" viewBox="0 0 20 20" fill="none" xmlns="http://www.w3.org/2000/svg">
<path d="M18.1641 3.59375H17.7734C17.4498 3.59375 17.1875 3.85609 17.1875 4.17969C17.1875 4.50328 17.4498 4.76562 17.7734 4.76562H18.1641C18.4877 4.76562 18.75 4.50328 18.75 4.17969C18.75 3.85609 18.4877 3.59375 18.1641 3.59375Z" fill="#464B51"/>
<path d="M18.1641 5.9375H17.7734C17.4498 5.9375 17.1875 6.19984 17.1875 6.52344C17.1875 6.84703 17.4498 7.10938 17.7734 7.10938H18.1641C18.4877 7.10938 18.75 6.84703 18.75 6.52344C18.75 6.19984 18.4877 5.9375 18.1641 5.9375Z" fill="#464B51"/>
<path d="M18.1641 8.28125H17.7734C17.4498 8.28125 17.1875 8.54359 17.1875 8.86719C17.1875 9.19078 17.4498 9.45312 17.7734 9.45312H18.1641C18.4877 9.45312 18.75 9.19078 18.75 8.86719C18.75 8.54359 18.4877 8.28125 18.1641 8.28125Z" fill="#464B51"/>
<path d="M6.52344 3.59375C4.90801 3.59375 3.59375 4.90801 3.59375 6.52344C3.59375 8.13887 4.90801 9.45312 6.52344 9.45312C8.13887 9.45312 9.45312 8.13887 9.45312 6.52344C9.45312 4.90801 8.13887 3.59375 6.52344 3.59375ZM6.52344 8.28125C5.55418 8.28125 4.76562 7.4927 4.76562 6.52344C4.76562 5.55418 5.55418 4.76562 6.52344 4.76562C7.4927 4.76562 8.28125 5.55418 8.28125 6.52344C8.28125 7.4927 7.4927 8.28125 6.52344 8.28125Z" fill="#464B51"/>
<path d="M15.6436 3.5966C15.227 3.55539 10.7613 2.95926 10.3747 2.92102C9.37844 1.85613 7.98828 1.25 6.52344 1.25C3.61566 1.25 1.25 3.61566 1.25 6.52344C1.25 8.36156 2.20508 10.0584 3.76039 11.0159L4.59922 14.3231C4.72543 15.048 5.25617 15.6102 5.9375 15.7946V15.8203C5.9375 17.4357 7.25176 18.75 8.86719 18.75C10.4826 18.75 11.7969 17.4357 11.7969 15.8203V15.6641C11.7969 15.341 12.0597 15.0781 12.3828 15.0781C12.7059 15.0781 12.9688 15.341 12.9688 15.6641V18.1641C12.9688 18.4877 13.2311 18.75 13.5547 18.75C13.8783 18.75 14.1406 18.4877 14.1406 18.1641V15.6641C14.1406 14.6948 13.3521 13.9062 12.3828 13.9062C11.4136 13.9062 10.625 14.6948 10.625 15.6641V15.8203C10.625 16.7896 9.83644 17.5781 8.86719 17.5781C7.89793 17.5781 7.10938 16.7896 7.10938 15.8203V15.7286C7.79504 15.4559 8.28125 14.7862 8.28125 14.0046V13.5156H8.86719C9.19078 13.5156 9.45312 13.2533 9.45312 12.9297C9.45312 12.6061 9.19078 12.3438 8.86719 12.3438H8.28125V11.497C9.07867 11.2161 9.79277 10.7489 10.3748 10.1259C10.7668 10.0871 15.2278 9.49141 15.6436 9.45031C15.9434 9.42062 16.1719 9.16844 16.1719 8.86719V4.17969C16.1719 3.87844 15.9434 3.62625 15.6436 3.5966ZM10.0324 8.98211C9.8818 8.99699 9.74273 9.06965 9.64445 9.18477C9.09203 9.83184 8.36758 10.2852 7.54926 10.4958C7.29031 10.5625 7.10934 10.7959 7.10934 11.0632V14.0046C7.10934 14.3811 6.80297 14.6875 6.42645 14.6875C6.09121 14.6875 5.80793 14.4475 5.75281 14.1169C5.74977 14.0984 5.44895 13.3403 4.85312 10.5191C4.81777 10.3516 4.7109 10.208 4.5607 10.1259C3.24141 9.40539 2.42188 8.025 2.42188 6.52344C2.42188 4.26184 4.26184 2.42188 6.52344 2.42188C7.72555 2.42188 8.86312 2.9468 9.64445 3.86211C9.74273 3.97727 9.88176 4.04988 10.0324 4.06477L12.6562 4.47875V8.56812L10.0324 8.98211ZM15 8.33633L13.8281 8.45223V4.59465L15 4.71055V8.33633Z" fill="#464B51"/>
</svg>
