<svg width="20" height="20" viewBox="0 0 20 20" fill="none" xmlns="http://www.w3.org/2000/svg">
<path d="M18.125 13.925V3.75C18.125 3.41848 17.9933 3.10054 17.7589 2.86612C17.5245 2.6317 17.2065 2.5 16.875 2.5H3.125C2.79348 2.5 2.47554 2.6317 2.24112 2.86612C2.0067 3.10054 1.875 3.41848 1.875 3.75V13.925C1.68608 14.0341 1.52899 14.1907 1.41934 14.3793C1.3097 14.5679 1.25132 14.7819 1.25 15V15.625C1.25 16.1223 1.44754 16.5992 1.79917 16.9508C2.15081 17.3025 2.62772 17.5 3.125 17.5H16.875C17.3723 17.5 17.8492 17.3025 18.2008 16.9508C18.5525 16.5992 18.75 16.1223 18.75 15.625V15C18.7487 14.7819 18.6903 14.5679 18.5807 14.3793C18.471 14.1907 18.3139 14.0341 18.125 13.925ZM3.125 3.75H16.875V13.75H3.125V3.75ZM17.5 15.625C17.5 15.7908 17.4342 15.9497 17.3169 16.0669C17.1997 16.1842 17.0408 16.25 16.875 16.25H3.125C2.95924 16.25 2.80027 16.1842 2.68306 16.0669C2.56585 15.9497 2.5 15.7908 2.5 15.625V15H17.5V15.625ZM4.375 6.06875C4.25086 6.06947 4.12932 6.03321 4.02587 5.96458C3.92242 5.89596 3.84175 5.79808 3.79414 5.68343C3.74654 5.56877 3.73416 5.44254 3.75858 5.32082C3.78299 5.19911 3.84311 5.08742 3.93125 5L4.375 4.55625C4.4921 4.43984 4.65051 4.3745 4.81562 4.3745C4.98074 4.3745 5.13915 4.43984 5.25625 4.55625C5.31483 4.61435 5.36133 4.68348 5.39306 4.75964C5.42479 4.8358 5.44112 4.91749 5.44112 5C5.44112 5.08251 5.42479 5.1642 5.39306 5.24036C5.36133 5.31652 5.31483 5.38565 5.25625 5.44375L4.81875 5.88125C4.76087 5.9403 4.69184 5.98729 4.61567 6.01947C4.53949 6.05166 4.45769 6.06841 4.375 6.06875ZM7.5 5C7.61641 5.1171 7.68175 5.27551 7.68175 5.44062C7.68175 5.60574 7.61641 5.76415 7.5 5.88125L5.25625 8.125C5.13984 8.24047 4.98271 8.30556 4.81875 8.30625C4.7365 8.30673 4.65496 8.29096 4.57881 8.25986C4.50266 8.22875 4.4334 8.18293 4.375 8.125C4.25859 8.0079 4.19325 7.84949 4.19325 7.68437C4.19325 7.51926 4.25859 7.36085 4.375 7.24375L6.5875 5C6.64596 4.93756 6.71662 4.88778 6.7951 4.85374C6.87358 4.81971 6.95821 4.80215 7.04375 4.80215C7.12929 4.80215 7.21392 4.81971 7.2924 4.85374C7.37088 4.88778 7.44154 4.93756 7.5 5Z" fill="#464B51"/>
</svg>
