<svg width="20" height="20" viewBox="0 0 20 20" fill="none" xmlns="http://www.w3.org/2000/svg">
<path d="M16.1328 1.25H3.86719C2.83344 1.25 1.99219 2.09125 1.99219 3.125V16.875C1.99219 17.9088 2.83344 18.75 3.86719 18.75H16.1328C17.1666 18.75 18.0078 17.9088 18.0078 16.875V3.125C18.0078 2.09125 17.1666 1.25 16.1328 1.25ZM16.7578 16.875C16.7578 17.2194 16.4772 17.5 16.1328 17.5H3.86719C3.52281 17.5 3.24219 17.2194 3.24219 16.875V3.125C3.24219 2.78062 3.52281 2.5 3.86719 2.5H16.1328C16.4772 2.5 16.7578 2.78062 16.7578 3.125V16.875Z" fill="#464B51"/>
<path d="M6.28906 3.63281H5.11719C4.79359 3.63281 4.53125 3.89516 4.53125 4.21875C4.53125 4.54234 4.79359 4.80469 5.11719 4.80469H6.28906C6.61266 4.80469 6.875 4.54234 6.875 4.21875C6.875 3.89516 6.61266 3.63281 6.28906 3.63281Z" fill="#464B51"/>
<path d="M9.49219 3.63281H8.32031C7.99672 3.63281 7.73438 3.89516 7.73438 4.21875C7.73438 4.54234 7.99672 4.80469 8.32031 4.80469H9.49219C9.81578 4.80469 10.0781 4.54234 10.0781 4.21875C10.0781 3.89516 9.81578 3.63281 9.49219 3.63281Z" fill="#464B51"/>
<path d="M14.2188 4.21875C14.2188 4.05299 14.2846 3.89402 14.4018 3.77681C14.519 3.6596 14.678 3.59375 14.8438 3.59375C14.9674 3.59375 15.0882 3.63041 15.191 3.69908C15.2938 3.76776 15.3739 3.86537 15.4212 3.97957C15.4685 4.09378 15.4809 4.21944 15.4567 4.34068C15.4326 4.46192 15.3731 4.57328 15.2857 4.66069C15.1983 4.7481 15.0869 4.80763 14.9657 4.83174C14.8444 4.85586 14.7188 4.84348 14.6046 4.79617C14.4904 4.74887 14.3928 4.66876 14.3241 4.56598C14.2554 4.4632 14.2188 4.34236 14.2188 4.21875ZM12.3438 4.21875C12.3438 4.05299 12.4096 3.89402 12.5268 3.77681C12.644 3.6596 12.803 3.59375 12.9688 3.59375C13.0924 3.59375 13.2132 3.63041 13.316 3.69908C13.4188 3.76776 13.4989 3.86537 13.5462 3.97957C13.5935 4.09378 13.6059 4.21944 13.5817 4.34068C13.5576 4.46192 13.4981 4.57328 13.4107 4.66069C13.3233 4.7481 13.2119 4.80763 13.0907 4.83174C12.9694 4.85586 12.8438 4.84348 12.7296 4.79617C12.6154 4.74887 12.5178 4.66876 12.4491 4.56598C12.3804 4.4632 12.3438 4.34236 12.3438 4.21875Z" fill="#464B51"/>
<path d="M14.2665 6.01562H5.73351C5.07046 6.01562 4.53125 6.55428 4.53125 7.21663V15.2052C4.53125 15.8676 5.07046 16.4062 5.73351 16.4062H14.2665C14.9295 16.4062 15.4688 15.8676 15.4688 15.2052V7.21663C15.4688 6.55428 14.9295 6.01562 14.2665 6.01562ZM5.73351 15.2052V7.21663H14.2665L14.2673 15.2052H5.73351Z" fill="#464B51"/>
<path d="M9.47261 12.2689V13.3985H8.94541C8.65419 13.3985 8.41802 13.6347 8.41802 13.9259C8.41802 14.2171 8.65419 14.4531 8.94541 14.4531H11.0546C11.3458 14.4531 11.582 14.2171 11.582 13.9259C11.582 13.6347 11.3458 13.3985 11.0546 13.3985H10.5274V12.2689C11.4561 12.0297 12.1063 11.1935 12.1094 10.2344V8.65241C12.1094 8.51259 12.054 8.37837 11.9549 8.2795C11.856 8.18043 11.7218 8.125 11.582 8.125H8.41802C8.2782 8.125 8.14399 8.18043 8.04512 8.2795C7.94605 8.37837 7.89062 8.51259 7.89062 8.65241V10.2344C7.89371 11.1935 8.54393 12.0297 9.47261 12.2689ZM8.94541 9.17982H11.0546V10.2344C11.0546 10.8169 10.5824 11.2891 10 11.2891C9.41757 11.2891 8.94541 10.8169 8.94541 10.2344V9.17982Z" fill="#464B51"/>
</svg>
