<svg width="20" height="20" viewBox="0 0 20 20" fill="none" xmlns="http://www.w3.org/2000/svg">
<path d="M16.875 1.25H3.125C2.09125 1.25 1.25 2.09125 1.25 3.125V16.875C1.25 17.9088 2.09125 18.75 3.125 18.75H16.875C17.9088 18.75 18.75 17.9088 18.75 16.875V3.125C18.75 2.09125 17.9088 1.25 16.875 1.25ZM17.5 16.875C17.5 17.2194 17.2194 17.5 16.875 17.5H3.125C2.78062 17.5 2.5 17.2194 2.5 16.875V3.125C2.5 2.78062 2.78062 2.5 3.125 2.5H16.875C17.2194 2.5 17.5 2.78062 17.5 3.125V16.875Z" fill="#464B51"/>
<path d="M13.5938 3.63281C12.0431 3.63281 10.7812 4.89469 10.7812 6.44531C10.7812 7.99594 12.0431 9.25781 13.5938 9.25781C15.1444 9.25781 16.4062 7.99594 16.4062 6.44531C16.4062 4.89469 15.1444 3.63281 13.5938 3.63281ZM13.5938 8.00781C12.7325 8.00781 12.0312 7.30656 12.0312 6.44531C12.0312 5.58406 12.7325 4.88281 13.5938 4.88281C14.455 4.88281 15.1562 5.58406 15.1562 6.44531C15.1562 7.30656 14.455 8.00781 13.5938 8.00781Z" fill="#464B51"/>
<path d="M6.44531 10.7812C4.89469 10.7812 3.63281 12.0431 3.63281 13.5938C3.63281 15.1444 4.89469 16.4062 6.44531 16.4062C7.99594 16.4062 9.25781 15.1444 9.25781 13.5938C9.25781 12.0431 7.99594 10.7812 6.44531 10.7812ZM6.44531 15.1562C5.58406 15.1562 4.88281 14.455 4.88281 13.5938C4.88281 12.7325 5.58406 12.0312 6.44531 12.0312C7.30656 12.0312 8.00781 12.7325 8.00781 13.5938C8.00781 14.455 7.30656 15.1562 6.44531 15.1562Z" fill="#464B51"/>
<path d="M6.44531 3.63281C4.89469 3.63281 3.63281 4.89469 3.63281 6.44531C3.63281 7.99594 4.89469 9.25781 6.44531 9.25781C7.99594 9.25781 9.25781 7.99594 9.25781 6.44531C9.25781 4.89469 7.99594 3.63281 6.44531 3.63281ZM6.44531 8.00781C5.58406 8.00781 4.88281 7.30656 4.88281 6.44531C4.88281 5.58406 5.58406 4.88281 6.44531 4.88281C7.30656 4.88281 8.00781 5.58406 8.00781 6.44531C8.00781 7.30656 7.30656 8.00781 6.44531 8.00781Z" fill="#464B51"/>
<path d="M13.2812 16.4062C15.0044 16.4062 16.4062 15.0044 16.4062 13.2812C16.4062 11.5581 15.0044 10.1562 13.2812 10.1562C11.5581 10.1562 10.1562 11.5581 10.1562 13.2812C10.1562 15.0044 11.5581 16.4062 13.2812 16.4062ZM13.2812 11.4062C14.315 11.4062 15.1562 12.2475 15.1562 13.2812C15.1562 14.315 14.315 15.1562 13.2812 15.1562C12.2475 15.1562 11.4062 14.315 11.4062 13.2812C11.4062 12.2475 12.2475 11.4062 13.2812 11.4062Z" fill="#464B51"/>
</svg>
