<svg width="20" height="20" viewBox="0 0 20 20" fill="none" xmlns="http://www.w3.org/2000/svg">
<path d="M15.3516 13.2031C15.284 13.2031 15.2172 13.2062 15.1507 13.2108L14.922 12.6012L18.3745 5.92843C18.4663 5.74679 18.4573 5.53051 18.3507 5.35715C18.2441 5.18379 18.0551 5.07812 17.8516 5.07812C17.8516 5.07812 17.2852 5.07812 17.0683 5.07812C16.7383 3.71094 15.5273 2.92969 14.3359 2.92969C13.1445 2.92969 13.6002 2.92962 11.3281 2.92969C9.05605 2.92976 9.75427 2.92969 8.32031 2.92969C7.12891 2.92969 5.95703 3.6914 5.58594 5.07812C5.25486 5.07812 4.66004 5.07812 4.66004 5.07812L4.30234 3.28961C4.10219 2.28887 3.21617 1.5625 2.19563 1.5625H1.52344C1.19984 1.5625 0.9375 1.82484 0.9375 2.14844C0.9375 2.47203 1.19984 2.73437 1.52344 2.73437H2.19563C2.65953 2.73437 3.06227 3.06453 3.15324 3.51941L5 12.5971V17.4262C5 18.3285 5.73402 19.0625 6.63625 19.0625C7.3927 19.0625 8.04637 18.5492 8.22578 17.8144L9.56164 13.125H13.8511L14.0215 13.5238C13.073 14.0093 12.4219 14.9961 12.4219 16.1328C12.4219 17.7482 13.7361 19.0625 15.3516 19.0625C16.967 19.0625 18.2812 17.7482 18.2812 16.1328C18.2812 14.5174 16.967 13.2031 15.3516 13.2031ZM8.32031 4.10156C9.49219 4.10156 9.53293 4.10156 11.3281 4.10156C13.1233 4.10156 13.3398 4.10156 14.3359 4.10156C15.0977 4.10156 15.625 4.58984 15.8359 5.07812C13.4531 5.07812 8.89062 5.07812 6.82031 5.07812C7.01172 4.60937 7.55859 4.10156 8.32031 4.10156ZM7.08738 17.5364C7.03645 17.745 6.85094 17.8906 6.63625 17.8906C6.3802 17.8906 6.17188 17.6823 6.17188 17.4262V13.125H8.35531L7.08738 17.5364ZM13.9365 11.9531H6.06629L4.89441 6.25H16.8988L13.9365 11.9531ZM15.3516 17.8906C14.3823 17.8906 13.5938 17.1021 13.5938 16.1328C13.5938 15.5377 13.8912 15.0111 14.345 14.693L14.7868 16.2891C14.8732 16.601 15.196 16.7839 15.5079 16.6975C15.8197 16.6112 16.0026 16.2884 15.9163 15.9765L15.4743 14.3798C16.3865 14.443 17.1094 15.2048 17.1094 16.1328C17.1094 17.1021 16.3209 17.8906 15.3516 17.8906Z" fill="#464B51"/>
</svg>
