<svg width="20" height="20" viewBox="0 0 20 20" fill="none" xmlns="http://www.w3.org/2000/svg">
<path d="M18.125 3.125C17.26 3.125 15.625 3.51688 15.625 5C15.6145 5.53416 15.7449 6.06166 16.0031 6.52937C16.1752 6.82318 16.2608 7.15966 16.25 7.5C16.25 7.9375 15.4644 8.25 14.9062 8.385L14.2144 7.6875C14.1564 7.62837 14.0873 7.58135 14.011 7.54916C13.9347 7.51697 13.8528 7.50026 13.77 7.5H9.37498C7.58842 7.50197 5.87279 8.19931 4.59149 9.44433C3.3102 10.6893 2.56387 12.3842 2.5106 14.17L1.35497 15.9031C1.29217 15.9973 1.2561 16.1067 1.25061 16.2197C1.24512 16.3327 1.27042 16.4451 1.3238 16.5449C1.37718 16.6446 1.45665 16.728 1.55372 16.7862C1.65079 16.8443 1.76182 16.875 1.87497 16.875H16.875C17.0407 16.875 17.1997 16.8092 17.3169 16.6919C17.4341 16.5747 17.5 16.4158 17.5 16.25V14.375C17.5 14.2092 17.4341 14.0503 17.3169 13.9331C17.1997 13.8158 17.0407 13.75 16.875 13.75H16.25V10C16.2495 9.83613 16.1846 9.67901 16.0694 9.5625L15.895 9.38625C16.6481 9.08938 17.5 8.53 17.5 7.5C17.5114 6.96612 17.3821 6.43864 17.125 5.97063C16.9518 5.67715 16.8651 5.34065 16.875 5C16.875 4.4125 18.1031 4.375 18.125 4.375C18.2907 4.375 18.4497 4.30915 18.5669 4.19194C18.6841 4.07473 18.75 3.91576 18.75 3.75C18.75 3.58424 18.6841 3.42527 18.5669 3.30806C18.4497 3.19085 18.2907 3.125 18.125 3.125ZM9.37498 8.75H13.5094L15 10.2569V13.75H3.78435C3.93981 12.3756 4.59552 11.1064 5.62654 10.1843C6.65755 9.2622 7.99178 8.75167 9.37498 8.75ZM16.25 15V15.625H3.0431L3.45935 15H16.25ZM14.3875 10.625C14.3875 10.7483 14.351 10.8689 14.2826 10.9716C14.2142 11.0742 14.1169 11.1543 14.0031 11.2018C13.8892 11.2493 13.7639 11.262 13.6428 11.2384C13.5218 11.2148 13.4104 11.1559 13.3227 11.0691C13.2351 10.9823 13.1751 10.8715 13.1503 10.7507C13.1254 10.6299 13.1369 10.5044 13.1833 10.3901C13.2296 10.2758 13.3088 10.1778 13.4107 10.1084C13.5127 10.0389 13.6329 10.0012 13.7562 10H13.7625C13.9282 10 14.0872 10.0658 14.2044 10.1831C14.3216 10.3003 14.3875 10.4592 14.3875 10.625ZM11.575 9.5625C11.5171 9.50345 11.4481 9.45646 11.3719 9.42428C11.2957 9.39209 11.2139 9.37534 11.1312 9.375H9.37498C8.54648 9.37599 7.7522 9.70555 7.16636 10.2914C6.58053 10.8772 6.25097 11.6715 6.24998 12.5C6.24998 12.6658 6.31582 12.8247 6.43303 12.9419C6.55024 13.0592 6.70922 13.125 6.87498 13.125H11.875C12.0407 13.125 12.1997 13.0592 12.3169 12.9419C12.4341 12.8247 12.5 12.6658 12.5 12.5V10.75C12.4995 10.5861 12.4346 10.429 12.3194 10.3125L11.575 9.5625ZM11.25 11.875H7.60685C7.73659 11.5097 7.97616 11.1934 8.29272 10.9697C8.60927 10.7459 8.98731 10.6255 9.37498 10.625H10.875L11.25 11.0069V11.875Z" fill="#464B51"/>
</svg>
