<svg width="20" height="20" viewBox="0 0 20 20" fill="none" xmlns="http://www.w3.org/2000/svg">
<path d="M13.125 1.25H11.25C11.0843 1.25 10.9253 1.31585 10.8081 1.43306C10.6909 1.55027 10.625 1.70924 10.625 1.875V6.875H7.16879L5.62504 3.15625C5.38108 2.59726 4.97888 2.12187 4.46801 1.7887C3.95714 1.45552 3.35995 1.27913 2.75004 1.28125H1.87504C1.73695 1.31272 1.61365 1.39015 1.52533 1.50086C1.43702 1.61158 1.38892 1.749 1.38892 1.89063C1.38892 2.03225 1.43702 2.16967 1.52533 2.28039C1.61365 2.3911 1.73695 2.46853 1.87504 2.5H2.71879C3.08684 2.5003 3.44666 2.60891 3.7534 2.8123C4.06015 3.01568 4.30025 3.30485 4.44379 3.64375L5.81254 6.875H4.37504C4.20928 6.875 4.05031 6.94085 3.9331 7.05806C3.81589 7.17527 3.75004 7.33424 3.75004 7.5V10.625C3.75004 11.288 4.01343 11.9239 4.48227 12.3928C4.95111 12.8616 5.587 13.125 6.25004 13.125H7.95004L7.26879 13.975C6.94949 13.8272 6.60191 13.7504 6.25004 13.75C5.78211 13.7485 5.32316 13.8783 4.92537 14.1247C4.52758 14.3712 4.20694 14.7243 3.99992 15.1439C3.79289 15.5636 3.7078 16.0329 3.75431 16.4985C3.80082 16.9641 3.97707 17.4073 4.26302 17.7777C4.54896 18.1481 4.93312 18.4308 5.37179 18.5937C5.81046 18.7565 6.28604 18.793 6.74442 18.699C7.2028 18.6049 7.62558 18.3841 7.96467 18.0617C8.30377 17.7392 8.54556 17.3281 8.66254 16.875H13.8375C13.9545 17.3281 14.1963 17.7392 14.5354 18.0617C14.8745 18.3841 15.2973 18.6049 15.7557 18.699C16.2141 18.793 16.6896 18.7565 17.1283 18.5937C17.567 18.4308 17.9511 18.1481 18.2371 17.7777C18.523 17.4073 18.6993 16.9641 18.7458 16.4985C18.7923 16.0329 18.7072 15.5636 18.5002 15.1439C18.2931 14.7243 17.9725 14.3712 17.5747 14.1247C17.1769 13.8783 16.718 13.7485 16.25 13.75C15.8982 13.7504 15.5506 13.8272 15.2313 13.975L14.55 13.125H16.25C16.9131 13.125 17.549 12.8616 18.0178 12.3928C18.4867 11.9239 18.75 11.288 18.75 10.625V6.875C18.75 5.38316 18.1574 3.95242 17.1025 2.89752C16.0476 1.84263 14.6169 1.25 13.125 1.25ZM11.875 2.5H13.125C14.2854 2.5 15.3982 2.96094 16.2186 3.78141C17.0391 4.60188 17.5 5.71468 17.5 6.875H11.875V2.5ZM6.25004 17.5C6.00281 17.5 5.76114 17.4267 5.55558 17.2893C5.35002 17.152 5.1898 16.9568 5.09519 16.7284C5.00058 16.4999 4.97583 16.2486 5.02406 16.0061C5.07229 15.7637 5.19134 15.5409 5.36616 15.3661C5.54097 15.1913 5.7637 15.0722 6.00618 15.024C6.24865 14.9758 6.49999 15.0005 6.7284 15.0951C6.9568 15.1898 7.15203 15.35 7.28938 15.5555C7.42673 15.7611 7.50004 16.0028 7.50004 16.25C7.50004 16.5815 7.36835 16.8995 7.13392 17.1339C6.8995 17.3683 6.58156 17.5 6.25004 17.5ZM17.5 16.25C17.5 16.4972 17.4267 16.7389 17.2894 16.9445C17.152 17.15 16.9568 17.3102 16.7284 17.4049C16.5 17.4995 16.2487 17.5242 16.0062 17.476C15.7637 17.4277 15.541 17.3087 15.3662 17.1339C15.1913 16.9591 15.0723 16.7363 15.0241 16.4939C14.9758 16.2514 15.0006 16.0001 15.0952 15.7716C15.1898 15.5432 15.35 15.348 15.5556 15.2107C15.7611 15.0733 16.0028 15 16.25 15C16.5816 15 16.8995 15.1317 17.1339 15.3661C17.3684 15.6005 17.5 15.9185 17.5 16.25ZM14.2563 14.7563C14.0602 15.0151 13.9179 15.3104 13.8375 15.625H8.66254C8.58221 15.3104 8.43984 15.0151 8.24379 14.7563L9.55004 13.125H12.95L14.2563 14.7563ZM17.5 10.625C17.5 10.9565 17.3684 11.2745 17.1339 11.5089C16.8995 11.7433 16.5816 11.875 16.25 11.875H6.25004C5.91852 11.875 5.60058 11.7433 5.36616 11.5089C5.13174 11.2745 5.00004 10.9565 5.00004 10.625V8.125H6.34379L7.23754 10.2437C7.28539 10.3567 7.36542 10.4531 7.46767 10.5209C7.56992 10.5887 7.68986 10.6249 7.81254 10.625C7.89617 10.6234 7.9788 10.6065 8.05629 10.575C8.20871 10.5103 8.3292 10.3877 8.39131 10.2342C8.45341 10.0806 8.45206 9.90876 8.38754 9.75625L7.70004 8.125H17.5V10.625Z" fill="#464B51"/>
</svg>
