<svg width="20" height="20" viewBox="0 0 20 20" fill="none" xmlns="http://www.w3.org/2000/svg">
<path d="M18.125 6.25C18.2908 6.25 18.4497 6.18415 18.5669 6.06694C18.6842 5.94973 18.75 5.79076 18.75 5.625V3.125C18.75 2.62772 18.5525 2.15081 18.2008 1.79917C17.8492 1.44754 17.3723 1.25 16.875 1.25H3.125C2.62772 1.25 2.15081 1.44754 1.79917 1.79917C1.44754 2.15081 1.25 2.62772 1.25 3.125V5.625C1.25 5.79076 1.31585 5.94973 1.43306 6.06694C1.55027 6.18415 1.70924 6.25 1.875 6.25H3.125V15C2.62772 15 2.15081 15.1975 1.79917 15.5492C1.44754 15.9008 1.25 16.3777 1.25 16.875V18.125C1.25 18.2908 1.31585 18.4497 1.43306 18.5669C1.55027 18.6842 1.70924 18.75 1.875 18.75H6.25C6.33225 18.7505 6.41379 18.7347 6.48994 18.7036C6.56609 18.6725 6.63535 18.6267 6.69375 18.5687L7.13125 18.125H12.8687L13.3063 18.5687C13.3647 18.6267 13.4339 18.6725 13.5101 18.7036C13.5862 18.7347 13.6677 18.7505 13.75 18.75H18.125C18.2908 18.75 18.4497 18.6842 18.5669 18.5669C18.6842 18.4497 18.75 18.2908 18.75 18.125V16.875C18.75 16.3777 18.5525 15.9008 18.2008 15.5492C17.8492 15.1975 17.3723 15 16.875 15V6.25H18.125ZM2.5 3.125C2.5 2.95924 2.56585 2.80027 2.68306 2.68306C2.80027 2.56585 2.95924 2.5 3.125 2.5H16.875C17.0408 2.5 17.1997 2.56585 17.3169 2.68306C17.4342 2.80027 17.5 2.95924 17.5 3.125V5H13.125V4.375C13.125 4.20924 13.0592 4.05027 12.9419 3.93306C12.8247 3.81585 12.6658 3.75 12.5 3.75H7.5C7.33424 3.75 7.17527 3.81585 7.05806 3.93306C6.94085 4.05027 6.875 4.20924 6.875 4.375V5H2.5V3.125ZM8.75 8.125V7.5H11.25V8.125H8.75ZM11.875 6.25H8.125V5H11.875V6.25ZM17.5 16.875V17.5H14.0063L13.5687 17.0563C13.5103 16.9983 13.4411 16.9525 13.3649 16.9214C13.2888 16.8903 13.2073 16.8745 13.125 16.875H6.875C6.79275 16.8745 6.71121 16.8903 6.63506 16.9214C6.55891 16.9525 6.48965 16.9983 6.43125 17.0563L5.99375 17.5H2.5V16.875C2.5 16.7092 2.56585 16.5503 2.68306 16.4331C2.80027 16.3158 2.95924 16.25 3.125 16.25H16.875C17.0408 16.25 17.1997 16.3158 17.3169 16.4331C17.4342 16.5503 17.5 16.7092 17.5 16.875ZM8.2375 12.5H11.7625L11.3438 15H8.65625L8.2375 12.5ZM15.625 15H12.6125L13.125 11.975C13.1396 11.885 13.1343 11.7928 13.1095 11.705C13.0847 11.6172 13.041 11.536 12.9814 11.4669C12.9219 11.3978 12.8479 11.3426 12.7647 11.3051C12.6816 11.2676 12.5912 11.2488 12.5 11.25H7.5C7.40879 11.2488 7.31842 11.2676 7.23525 11.3051C7.15208 11.3426 7.07812 11.3978 7.01856 11.4669C6.959 11.536 6.91528 11.6172 6.89048 11.705C6.86568 11.7928 6.8604 11.885 6.875 11.975L7.3875 15H4.375V6.25H6.875V6.875C6.875 7.04076 6.94085 7.19973 7.05806 7.31694C7.17527 7.43415 7.33424 7.5 7.5 7.5V8.75C7.5 8.91576 7.56585 9.07473 7.68306 9.19194C7.80027 9.30915 7.95924 9.375 8.125 9.375H9.375C9.375 9.54076 9.44085 9.69973 9.55806 9.81694C9.67527 9.93415 9.83424 10 10 10C10.1658 10 10.3247 9.93415 10.4419 9.81694C10.5592 9.69973 10.625 9.54076 10.625 9.375H11.875C12.0408 9.375 12.1997 9.30915 12.3169 9.19194C12.4342 9.07473 12.5 8.91576 12.5 8.75V7.5C12.6658 7.5 12.8247 7.43415 12.9419 7.31694C13.0592 7.19973 13.125 7.04076 13.125 6.875V6.25H15.625V15ZM15 3.75C15 3.58424 15.0658 3.42527 15.1831 3.30806C15.3003 3.19085 15.4592 3.125 15.625 3.125H16.25C16.4158 3.125 16.5747 3.19085 16.6919 3.30806C16.8092 3.42527 16.875 3.58424 16.875 3.75C16.875 3.91576 16.8092 4.07473 16.6919 4.19194C16.5747 4.30915 16.4158 4.375 16.25 4.375H15.625C15.4592 4.375 15.3003 4.30915 15.1831 4.19194C15.0658 4.07473 15 3.91576 15 3.75ZM3.75 4.375C3.58424 4.375 3.42527 4.30915 3.30806 4.19194C3.19085 4.07473 3.125 3.91576 3.125 3.75C3.125 3.58424 3.19085 3.42527 3.30806 3.30806C3.42527 3.19085 3.58424 3.125 3.75 3.125H4.375C4.54076 3.125 4.69973 3.19085 4.81694 3.30806C4.93415 3.42527 5 3.58424 5 3.75C5 3.91576 4.93415 4.07473 4.81694 4.19194C4.69973 4.30915 4.54076 4.375 4.375 4.375H3.75Z" fill="#464B51"/>
</svg>
