<svg width="20" height="20" viewBox="0 0 20 20" fill="none" xmlns="http://www.w3.org/2000/svg">
<path d="M18.6981 7.8025C18.6002 7.56052 18.43 7.35464 18.2108 7.21292C17.9916 7.07121 17.734 7.00057 17.4731 7.01063L12.9106 6.61063L11.1606 2.19875C10.6606 0.935 9.34812 0.9325 8.84812 2.19875L7.09812 6.60688L2.53062 7.01063C2.26971 7.00062 2.01205 7.07127 1.79273 7.21297C1.57342 7.35467 1.40311 7.56052 1.305 7.8025C1.23721 8.0553 1.24883 8.32284 1.33828 8.56881C1.42772 8.81478 1.59066 9.02729 1.805 9.1775L5.32187 12.3787L4.26125 17.1194C4.16469 17.3714 4.15067 17.6476 4.22122 17.908C4.29176 18.1685 4.44322 18.3999 4.65375 18.5687C4.88357 18.7091 5.15209 18.7726 5.42042 18.7501C5.68876 18.7276 5.94297 18.6203 6.14625 18.4438L10 15.9725L13.8575 18.4431C14.0657 18.61 14.3188 18.711 14.5847 18.7332C14.8505 18.7555 15.117 18.698 15.35 18.5681C15.5603 18.3992 15.7115 18.168 15.782 17.9076C15.8524 17.6472 15.8384 17.3712 15.7419 17.1194L14.6862 12.3831L18.2044 9.17688C18.4176 9.02601 18.5793 8.81325 18.6676 8.56743C18.756 8.3216 18.7666 8.05457 18.6981 7.8025ZM13.8425 11.4556C13.6856 11.608 13.5692 11.797 13.5038 12.0057C13.4383 12.2143 13.4258 12.436 13.4675 12.6506L14.5187 17.3794L10.6725 14.9162C10.4702 14.7945 10.2386 14.7302 10.0025 14.7302C9.76641 14.7302 9.53478 14.7945 9.3325 14.9162L5.48375 17.38L6.53562 12.6506C6.57673 12.436 6.56399 12.2145 6.49855 12.0059C6.43311 11.7974 6.31701 11.6083 6.16062 11.4556L2.64875 8.2575L7.20437 7.855C7.43172 7.82772 7.64793 7.74128 7.83141 7.6043C8.0149 7.46732 8.15923 7.28459 8.25 7.07438L10 2.675L11.75 7.07438C11.8407 7.28491 11.9851 7.46787 12.1689 7.6049C12.3526 7.74192 12.5692 7.82818 12.7969 7.855L17.3531 8.2575L13.8425 11.4556Z" fill="#464B51"/>
</svg>
