<svg width="20" height="20" viewBox="0 0 20 20" fill="none" xmlns="http://www.w3.org/2000/svg">
<path d="M14.375 1.25H5.625C5.29348 1.25 4.97554 1.3817 4.74112 1.61612C4.5067 1.85054 4.375 2.16848 4.375 2.5V17.5C4.375 17.8315 4.5067 18.1495 4.74112 18.3839C4.97554 18.6183 5.29348 18.75 5.625 18.75H14.375C14.7065 18.75 15.0245 18.6183 15.2589 18.3839C15.4933 18.1495 15.625 17.8315 15.625 17.5V2.5C15.625 2.16848 15.4933 1.85054 15.2589 1.61612C15.0245 1.3817 14.7065 1.25 14.375 1.25ZM5.625 2.5H14.375V8.125H5.625V2.5ZM5.625 17.5V9.375H14.375V17.5H5.625ZM7.5 5.625V6.875C7.5 7.04076 7.43415 7.19973 7.31694 7.31694C7.19973 7.43415 7.04076 7.5 6.875 7.5C6.70924 7.5 6.55027 7.43415 6.43306 7.31694C6.31585 7.19973 6.25 7.04076 6.25 6.875V5.625C6.25 5.45924 6.31585 5.30027 6.43306 5.18306C6.55027 5.06585 6.70924 5 6.875 5C7.04076 5 7.19973 5.06585 7.31694 5.18306C7.43415 5.30027 7.5 5.45924 7.5 5.625ZM7.5 10.625V11.875C7.5 12.0408 7.43415 12.1997 7.31694 12.3169C7.19973 12.4342 7.04076 12.5 6.875 12.5C6.70924 12.5 6.55027 12.4342 6.43306 12.3169C6.31585 12.1997 6.25 12.0408 6.25 11.875V10.625C6.25 10.4592 6.31585 10.3003 6.43306 10.1831C6.55027 10.0658 6.70924 10 6.875 10C7.04076 10 7.19973 10.0658 7.31694 10.1831C7.43415 10.3003 7.5 10.4592 7.5 10.625Z" fill="#464B51"/>
</svg>
