<svg width="20" height="20" viewBox="0 0 20 20" fill="none" xmlns="http://www.w3.org/2000/svg">
<path d="M4.34631 4.38544C4.02272 4.38544 3.76038 4.64778 3.76038 4.97137V6.22656C3.76038 6.55016 4.02272 6.8125 4.34631 6.8125C4.66991 6.8125 4.93225 6.55016 4.93225 6.22656V4.97137C4.93225 4.64778 4.66991 4.38544 4.34631 4.38544Z" fill="#464B51"/>
<path d="M6.85681 4.38544C6.53322 4.38544 6.27087 4.64778 6.27087 4.97137V6.22656C6.27087 6.55016 6.53322 6.8125 6.85681 6.8125C7.18041 6.8125 7.44275 6.55016 7.44275 6.22656V4.97137C7.44275 4.64778 7.18041 4.38544 6.85681 4.38544Z" fill="#464B51"/>
<path d="M9.36719 4.38544C9.04359 4.38544 8.78125 4.64778 8.78125 4.97137V6.22656C8.78125 6.55016 9.04359 6.8125 9.36719 6.8125C9.69078 6.8125 9.95312 6.55016 9.95312 6.22656V4.97137C9.95312 4.64778 9.69078 4.38544 9.36719 4.38544Z" fill="#464B51"/>
<path d="M18.1641 5.01301H16.6332C16.492 4.43039 15.8316 3.13019 14.2344 3.13019H14.0954C13.7445 2.08883 12.7777 1.875 12.3516 1.875H3.09117C2.07633 1.875 1.25 2.70121 1.25 3.71613V7.48175C1.25 8.49507 2.07402 9.32289 3.09117 9.32289H3.39832L1.31188 13.4958C1.27051 13.5785 1.25 13.6682 1.25 13.7578V17.5234C1.25 17.847 1.51234 18.1094 1.83594 18.1094H8.73957C9.06316 18.1094 9.32551 17.847 9.32551 17.5234V16.2682C9.32551 14.8678 8.39078 13.6823 7.11266 13.301L7.84648 11.8334H9.36719C10.3824 11.8334 11.2084 11.0074 11.2084 9.99222V9.32296H12.3516C13.4593 9.32296 13.9627 8.47086 14.0975 8.06777H14.2344C15.8318 8.06777 16.492 6.76816 16.6332 6.18496H18.1641C18.4877 6.18496 18.75 5.92261 18.75 5.59902C18.75 5.27543 18.4877 5.01301 18.1641 5.01301ZM4.70848 9.32293H7.79152L5.86703 13.1719H2.78402L4.70848 9.32293ZM8.15363 16.2682V16.9375H2.42188V14.3437H6.22918C7.29035 14.3437 8.15363 15.2071 8.15363 16.2682ZM10.0365 9.99218C10.0365 10.3612 9.73621 10.6614 9.36719 10.6614H8.43242L9.10168 9.32289H10.0364V9.99218H10.0365ZM12.3516 8.15105H3.09117C2.72059 8.15105 2.42188 7.84933 2.42188 7.48179V3.71617C2.42188 3.34758 2.7223 3.04687 3.09117 3.04687H12.3516C12.7192 3.04687 13.0208 3.34566 13.0208 3.71613V7.48175C13.0208 7.85152 12.7207 8.15105 12.3516 8.15105ZM14.2344 6.89582H14.1927V4.30207H14.2344C14.9506 4.30207 15.5312 4.88172 15.5312 5.59894C15.5312 6.31582 14.9517 6.89582 14.2344 6.89582Z" fill="#464B51"/>
</svg>
