<svg width="20" height="20" viewBox="0 0 20 20" fill="none" xmlns="http://www.w3.org/2000/svg">
<path d="M13.75 1.25H6.25C5.91848 1.25 5.60054 1.3817 5.36612 1.61612C5.1317 1.85054 5 2.16848 5 2.5V17.5C5 17.8315 5.1317 18.1495 5.36612 18.3839C5.60054 18.6183 5.91848 18.75 6.25 18.75H13.75C14.0815 18.75 14.3995 18.6183 14.6339 18.3839C14.8683 18.1495 15 17.8315 15 17.5V2.5C15 2.16848 14.8683 1.85054 14.6339 1.61612C14.3995 1.3817 14.0815 1.25 13.75 1.25ZM6.25 17.5V2.5H13.75V17.5H6.25ZM10.625 16.25C10.625 16.3736 10.5883 16.4945 10.5197 16.5972C10.451 16.7 10.3534 16.7801 10.2392 16.8274C10.125 16.8747 9.99931 16.8871 9.87807 16.863C9.75683 16.8389 9.64547 16.7794 9.55806 16.6919C9.47065 16.6045 9.41112 16.4932 9.38701 16.3719C9.36289 16.2507 9.37527 16.125 9.42257 16.0108C9.46988 15.8966 9.54999 15.799 9.65277 15.7303C9.75555 15.6617 9.87639 15.625 10 15.625C10.1658 15.625 10.3247 15.6908 10.4419 15.8081C10.5592 15.9253 10.625 16.0842 10.625 16.25ZM7.5 4.81875C7.37586 4.81947 7.25432 4.78321 7.15087 4.71458C7.04742 4.64596 6.96675 4.54808 6.91914 4.43343C6.87154 4.31877 6.85916 4.19254 6.88358 4.07082C6.90799 3.94911 6.96811 3.83742 7.05625 3.75L7.5 3.30625C7.6171 3.18984 7.77551 3.1245 7.94062 3.1245C8.10574 3.1245 8.26415 3.18984 8.38125 3.30625C8.43983 3.36435 8.48633 3.43348 8.51806 3.50964C8.54979 3.5858 8.56612 3.66749 8.56612 3.75C8.56612 3.83251 8.54979 3.9142 8.51806 3.99036C8.48633 4.06652 8.43983 4.13565 8.38125 4.19375L7.94375 4.63125C7.88587 4.6903 7.81684 4.73729 7.74067 4.76947C7.66449 4.80166 7.58269 4.81841 7.5 4.81875ZM10.625 3.75C10.7414 3.8671 10.8067 4.02551 10.8067 4.19062C10.8067 4.35574 10.7414 4.51415 10.625 4.63125L8.38125 6.875C8.26484 6.99047 8.10771 7.05556 7.94375 7.05625C7.8615 7.05673 7.77996 7.04096 7.70381 7.00986C7.62766 6.97875 7.5584 6.93293 7.5 6.875C7.38359 6.7579 7.31825 6.59949 7.31825 6.43437C7.31825 6.26926 7.38359 6.11085 7.5 5.99375L9.7125 3.75C9.77096 3.68756 9.84162 3.63778 9.9201 3.60374C9.99858 3.56971 10.0832 3.55215 10.1688 3.55215C10.2543 3.55215 10.3389 3.56971 10.4174 3.60374C10.4959 3.63778 10.5665 3.68756 10.625 3.75Z" fill="#464B51"/>
</svg>
