<svg width="20" height="20" viewBox="0 0 20 20" fill="none" xmlns="http://www.w3.org/2000/svg">
<path d="M18.5687 9.55627L10.4437 1.43127C10.3856 1.37269 10.3165 1.3262 10.2404 1.29447C10.1642 1.26274 10.0825 1.2464 9.99999 1.2464C9.91749 1.2464 9.8358 1.26274 9.75963 1.29447C9.68347 1.3262 9.61435 1.37269 9.55624 1.43127L2.68124 8.30627L1.43124 9.55627C1.31355 9.67396 1.24744 9.83358 1.24744 10C1.24744 10.1665 1.31355 10.3261 1.43124 10.4438C1.54893 10.5615 1.70856 10.6276 1.87499 10.6276C2.04143 10.6276 2.20105 10.5615 2.31874 10.4438L2.49999 10.2563V18.125C2.49999 18.2908 2.56584 18.4498 2.68305 18.567C2.80026 18.6842 2.95923 18.75 3.12499 18.75H16.8125C16.9783 18.75 17.1372 18.6842 17.2544 18.567C17.3716 18.4498 17.4375 18.2908 17.4375 18.125V10.1938L17.6812 10.4438C17.7393 10.5024 17.8085 10.5489 17.8846 10.5806C17.9608 10.6123 18.0425 10.6286 18.125 10.6286C18.2075 10.6286 18.2892 10.6123 18.3654 10.5806C18.4415 10.5489 18.5106 10.5024 18.5687 10.4438C18.6273 10.3857 18.6738 10.3165 18.7056 10.2404C18.7373 10.1642 18.7536 10.0825 18.7536 10C18.7536 9.91752 18.7373 9.83582 18.7056 9.75966C18.6738 9.6835 18.6273 9.61438 18.5687 9.55627ZM11.25 17.5H8.74999V13.125H11.25V17.5ZM16.1875 17.5H12.5V12.5C12.5 12.3343 12.4341 12.1753 12.3169 12.0581C12.1997 11.9409 12.0408 11.875 11.875 11.875H8.12499C7.95923 11.875 7.80026 11.9409 7.68305 12.0581C7.56584 12.1753 7.49999 12.3343 7.49999 12.5V17.5H3.74999V9.00627L9.99999 2.75627L16.1875 8.94377V17.5Z" fill="#464B51"/>
</svg>
