<svg width="20" height="20" viewBox="0 0 20 20" fill="none" xmlns="http://www.w3.org/2000/svg">
<path d="M15.7 8.80002C15.3748 8.80002 15.0604 8.84442 14.7582 8.91982L12.7422 4.60002H15.4C15.731 4.60002 16 4.86922 16 5.20002C16 5.53082 15.731 5.80002 15.4 5.80002C15.0684 5.80002 14.8 6.06862 14.8 6.40002C14.8 6.73142 15.0684 7.00002 15.4 7.00002C16.3926 7.00002 17.2 6.19262 17.2 5.20002C17.2 4.20742 16.3926 3.40002 15.4 3.40002H11.8C11.595 3.40002 11.404 3.50462 11.2938 3.67782C11.1836 3.85062 11.1696 4.06802 11.2562 4.25382L12.2578 6.40002H7.97082L7.37082 5.20002H8.20002C8.53162 5.20002 8.80002 4.93142 8.80002 4.60002C8.80002 4.26862 8.53162 4.00002 8.20002 4.00002H5.20002C4.86842 4.00002 4.60002 4.26862 4.60002 4.60002C4.60002 4.93142 4.86842 5.20002 5.20002 5.20002H6.02922L6.91602 6.97382L5.66862 9.05282C5.24202 8.89202 4.78202 8.80002 4.30002 8.80002C2.14962 8.80002 0.400024 10.5496 0.400024 12.7C0.400024 14.8504 2.14962 16.6 4.30002 16.6C6.14022 16.6 7.68302 15.3172 8.09102 13.6H9.40002C9.60562 13.6 9.79662 13.4948 9.90682 13.321L13.12 8.24742L13.652 9.38742C12.5426 10.0758 11.8 11.3012 11.8 12.7C11.8 14.8504 13.5496 16.6 15.7 16.6C17.8504 16.6 19.6 14.8504 19.6 12.7C19.6 10.5496 17.8504 8.80002 15.7 8.80002ZM4.30002 15.4C2.81122 15.4 1.60002 14.1888 1.60002 12.7C1.60002 11.2112 2.81122 10 4.30002 10C4.55542 10 4.79782 10.047 5.03202 10.1136L3.48542 12.6912C3.37402 12.8766 3.37122 13.1076 3.47782 13.2956C3.58442 13.4836 3.78382 13.6 4.00002 13.6H6.83422C6.46142 14.6454 5.47182 15.4 4.30002 15.4ZM6.96962 12.4H5.06002L6.08562 10.6904C6.57082 11.1218 6.89342 11.7212 6.96962 12.4ZM9.06962 12.4H8.18482C8.09922 11.284 7.54362 10.2994 6.71422 9.64302L7.93982 7.60002H12.1094L9.06962 12.4ZM15.7 15.4C14.2112 15.4 13 14.1888 13 12.7C13 11.7822 13.4622 10.9726 14.164 10.4844L15.4564 13.2536C15.5582 13.472 15.7744 13.6 16.0006 13.6C16.0856 13.6 16.1716 13.5822 16.2538 13.5438C16.5544 13.4038 16.6838 13.0466 16.5438 12.7464L15.282 10.0424C15.4192 10.0206 15.5568 10 15.7 10C17.1888 10 18.4 11.2112 18.4 12.7C18.4 14.1888 17.1888 15.4 15.7 15.4Z" fill="#464B51"/>
</svg>
