<svg width="20" height="20" viewBox="0 0 20 20" fill="none" xmlns="http://www.w3.org/2000/svg">
<path d="M16.6104 1.25H3.38941C2.72656 1.25 2.1875 1.78906 2.1875 2.45192L2.1877 17.5481C2.1877 18.2109 2.72676 18.75 3.38961 18.75H16.6106C17.2734 18.75 17.8125 18.2109 17.8125 17.5481L17.8123 2.45192C17.8123 1.78906 17.2732 1.25 16.6104 1.25ZM16.6104 2.45192L16.6106 6.05769H3.38941V2.45192H16.6104ZM3.38961 17.5481L3.38941 7.25962H16.6106L16.6114 17.5481H3.38961ZM14.2066 8.46154H5.79322C5.13037 8.46154 4.59132 9.0006 4.59132 9.66346V15.1562C4.59132 15.8191 5.13037 16.3582 5.79322 16.3582H14.2066C14.8694 16.3582 15.4085 15.8191 15.4085 15.1562V9.66346C15.4085 9.0006 14.8694 8.46154 14.2066 8.46154ZM5.79322 15.1562V9.66346H14.2066L14.2074 15.1562H5.79322ZM4.59132 4.25481C4.59132 3.92288 4.86034 3.65385 5.19227 3.65385C5.5242 3.65385 5.79322 3.92288 5.79322 4.25481C5.79322 4.58674 5.5242 4.85577 5.19227 4.85577C4.86034 4.85577 4.59132 4.58674 4.59132 4.25481ZM6.39418 4.25481C6.39418 3.92288 6.6632 3.65385 6.99513 3.65385C7.32706 3.65385 7.59609 3.92288 7.59609 4.25481C7.59609 4.58674 7.32706 4.85577 6.99513 4.85577C6.6632 4.85577 6.39418 4.58674 6.39418 4.25481ZM14.2066 4.25481C14.2066 3.92288 14.4756 3.65385 14.8075 3.65385C15.1395 3.65385 15.4085 3.92288 15.4085 4.25481C15.4085 4.58674 15.1395 4.85577 14.8075 4.85577C14.4756 4.85577 14.2066 4.58674 14.2066 4.25481ZM12.4037 4.25481C12.4037 3.92288 12.6727 3.65385 13.0047 3.65385C13.3366 3.65385 13.6056 3.92288 13.6056 4.25481C13.6056 4.58674 13.3366 4.85577 13.0047 4.85577C12.6727 4.85577 12.4037 4.58674 12.4037 4.25481ZM8.79799 4.25481C8.79799 3.92288 9.06702 3.65385 9.39895 3.65385H10.6009C10.9328 3.65385 11.2018 3.92288 11.2018 4.25481C11.2018 4.58674 10.9328 4.85577 10.6009 4.85577H9.39895C9.06702 4.85577 8.79799 4.58674 8.79799 4.25481Z" fill="#464B51"/>
</svg>
