<svg width="20" height="20" viewBox="0 0 20 20" fill="none" xmlns="http://www.w3.org/2000/svg">
<path d="M17.5 2.5H2.5C2.16848 2.5 1.85054 2.6317 1.61612 2.86612C1.3817 3.10054 1.25 3.41848 1.25 3.75V13.75C1.25 14.0815 1.3817 14.3995 1.61612 14.6339C1.85054 14.8683 2.16848 15 2.5 15H9.375V16.25H4.375C4.20924 16.25 4.05027 16.3158 3.93306 16.4331C3.81585 16.5503 3.75 16.7092 3.75 16.875C3.75 17.0408 3.81585 17.1997 3.93306 17.3169C4.05027 17.4342 4.20924 17.5 4.375 17.5H15.625C15.7908 17.5 15.9497 17.4342 16.0669 17.3169C16.1842 17.1997 16.25 17.0408 16.25 16.875C16.25 16.7092 16.1842 16.5503 16.0669 16.4331C15.9497 16.3158 15.7908 16.25 15.625 16.25H10.625V15H17.5C17.8315 15 18.1495 14.8683 18.3839 14.6339C18.6183 14.3995 18.75 14.0815 18.75 13.75V3.75C18.75 3.41848 18.6183 3.10054 18.3839 2.86612C18.1495 2.6317 17.8315 2.5 17.5 2.5ZM2.5 13.75V3.75H17.5V13.75H2.5ZM3.75 6.50625C3.66775 6.50673 3.58621 6.49096 3.51006 6.45986C3.43391 6.42875 3.36465 6.38293 3.30625 6.325C3.18984 6.2079 3.1245 6.04949 3.1245 5.88438C3.1245 5.71926 3.18984 5.56085 3.30625 5.44375L4.19375 4.55625C4.31085 4.43984 4.46926 4.3745 4.63438 4.3745C4.79949 4.3745 4.9579 4.43984 5.075 4.55625C5.13358 4.61435 5.18008 4.68348 5.21181 4.75964C5.24354 4.8358 5.25987 4.91749 5.25987 5C5.25987 5.08251 5.24354 5.1642 5.21181 5.24036C5.18008 5.31652 5.13358 5.38565 5.075 5.44375L4.19375 6.325C4.13535 6.38293 4.06609 6.42875 3.98994 6.45986C3.91379 6.49096 3.83225 6.50673 3.75 6.50625ZM7.2875 5C7.40391 5.1171 7.46925 5.27551 7.46924 5.44062C7.46925 5.60574 7.40391 5.76415 7.2875 5.88125L4.63125 8.5375C4.51484 8.65297 4.35771 8.71806 4.19375 8.71875C4.1115 8.71923 4.02996 8.70346 3.95381 8.67236C3.87766 8.64125 3.8084 8.59543 3.75 8.5375C3.69142 8.4794 3.64492 8.41027 3.61319 8.33411C3.58146 8.25795 3.56513 8.17626 3.56513 8.09375C3.56513 8.01124 3.58146 7.92955 3.61319 7.85339C3.64492 7.77723 3.69142 7.7081 3.75 7.65L6.4 5C6.4581 4.94142 6.52723 4.89492 6.60339 4.86319C6.67955 4.83146 6.76124 4.81513 6.84375 4.81513C6.92626 4.81513 7.00795 4.83146 7.08411 4.86319C7.16027 4.89492 7.2294 4.94142 7.2875 5Z" fill="#464B51"/>
</svg>
