<svg width="20" height="20" viewBox="0 0 20 20" fill="none" xmlns="http://www.w3.org/2000/svg">
<path d="M16.25 1.25H3.75C3.41848 1.25 3.10054 1.3817 2.86612 1.61612C2.6317 1.85054 2.5 2.16848 2.5 2.5V17.5C2.5 17.8315 2.6317 18.1495 2.86612 18.3839C3.10054 18.6183 3.41848 18.75 3.75 18.75H16.25C16.5815 18.75 16.8995 18.6183 17.1339 18.3839C17.3683 18.1495 17.5 17.8315 17.5 17.5V2.5C17.5 2.16848 17.3683 1.85054 17.1339 1.61612C16.8995 1.3817 16.5815 1.25 16.25 1.25ZM16.25 2.5V5H3.75V2.5H16.25ZM3.75 17.5V6.25H16.25V17.5H3.75ZM14.375 3.75C14.375 3.58424 14.4408 3.42527 14.5581 3.30806C14.6753 3.19085 14.8342 3.125 15 3.125C15.1236 3.125 15.2445 3.16166 15.3472 3.23033C15.45 3.29901 15.5301 3.39662 15.5774 3.51082C15.6247 3.62503 15.6371 3.75069 15.613 3.87193C15.5889 3.99317 15.5294 4.10453 15.4419 4.19194C15.3545 4.27935 15.2432 4.33888 15.1219 4.36299C15.0007 4.38711 14.875 4.37473 14.7608 4.32742C14.6466 4.28012 14.549 4.20001 14.4803 4.09723C14.4117 3.99445 14.375 3.87361 14.375 3.75ZM12.5 3.75C12.5 3.58424 12.5658 3.42527 12.6831 3.30806C12.8003 3.19085 12.9592 3.125 13.125 3.125C13.2486 3.125 13.3695 3.16166 13.4722 3.23033C13.575 3.29901 13.6551 3.39662 13.7024 3.51082C13.7497 3.62503 13.7621 3.75069 13.738 3.87193C13.7139 3.99317 13.6544 4.10453 13.5669 4.19194C13.4795 4.27935 13.3682 4.33888 13.2469 4.36299C13.1257 4.38711 13 4.37473 12.8858 4.32742C12.7716 4.28012 12.674 4.20001 12.6053 4.09723C12.5367 3.99445 12.5 3.87361 12.5 3.75ZM10 6.875C9.01109 6.875 8.04439 7.16824 7.22215 7.71765C6.3999 8.26706 5.75904 9.04795 5.3806 9.96158C5.00216 10.8752 4.90315 11.8805 5.09607 12.8505C5.289 13.8204 5.7652 14.7113 6.46447 15.4105C7.16373 16.1098 8.05464 16.586 9.02455 16.7789C9.99445 16.9719 10.9998 16.8728 11.9134 16.4944C12.827 16.116 13.6079 15.4751 14.1573 14.6529C14.7068 13.8306 15 12.8639 15 11.875C15 10.5489 14.4732 9.27715 13.5355 8.33947C12.5979 7.40178 11.3261 6.875 10 6.875ZM10 15.625C9.25832 15.625 8.5333 15.4051 7.91661 14.993C7.29993 14.581 6.81928 13.9953 6.53545 13.3101C6.25162 12.6248 6.17736 11.8708 6.32206 11.1434C6.46675 10.416 6.8239 9.7478 7.34835 9.22335C7.8728 8.6989 8.54098 8.34175 9.26841 8.19706C9.99584 8.05236 10.7498 8.12662 11.4351 8.41045C12.1203 8.69428 12.706 9.17493 13.118 9.79161C13.5301 10.4083 13.75 11.1333 13.75 11.875C13.75 12.8696 13.3549 13.8234 12.6517 14.5267C11.9484 15.2299 10.9946 15.625 10 15.625ZM8.5625 10.875C8.50693 10.9408 8.43835 10.9944 8.36109 11.0324C8.28382 11.0705 8.19953 11.0921 8.11349 11.096C8.02746 11.1 7.94155 11.0861 7.86114 11.0552C7.78074 11.0244 7.70758 10.9772 7.64625 10.9167C7.58492 10.8563 7.53675 10.7838 7.50476 10.7038C7.47277 10.6239 7.45765 10.5382 7.46035 10.4521C7.46305 10.366 7.48351 10.2814 7.52045 10.2036C7.55739 10.1258 7.61 10.0565 7.675 10L8.11875 9.55625C8.23585 9.43984 8.39426 9.37451 8.55937 9.37451C8.72449 9.37451 8.8829 9.43984 9 9.55625C9.05858 9.61435 9.10508 9.68348 9.13681 9.75964C9.16854 9.8358 9.18487 9.91749 9.18487 10C9.18487 10.0825 9.16854 10.1642 9.13681 10.2404C9.10508 10.3165 9.05858 10.3856 9 10.4437L8.5625 10.875ZM10.7687 10.4375C10.8852 10.5546 10.9505 10.713 10.9505 10.8781C10.9505 11.0432 10.8852 11.2016 10.7687 11.3188L9.44375 12.6437C9.32665 12.7602 9.16824 12.8255 9.00312 12.8255C8.83801 12.8255 8.6796 12.7602 8.5625 12.6437C8.44609 12.5266 8.38075 12.3682 8.38075 12.2031C8.38075 12.038 8.44609 11.8796 8.5625 11.7625L9.8875 10.4375C10.0046 10.3211 10.163 10.2558 10.3281 10.2558C10.4932 10.2558 10.6516 10.3211 10.7687 10.4375ZM4.375 3.75C4.375 3.58424 4.44085 3.42527 4.55806 3.30806C4.67527 3.19085 4.83424 3.125 5 3.125H6.25C6.41576 3.125 6.57473 3.19085 6.69194 3.30806C6.80915 3.42527 6.875 3.58424 6.875 3.75C6.875 3.91576 6.80915 4.07473 6.69194 4.19194C6.57473 4.30915 6.41576 4.375 6.25 4.375H5C4.83424 4.375 4.67527 4.30915 4.55806 4.19194C4.44085 4.07473 4.375 3.91576 4.375 3.75Z" fill="#464B51"/>
</svg>
