<svg width="24" height="24" viewBox="0 0 24 24" fill="none" xmlns="http://www.w3.org/2000/svg">
<g clip-path="url(#clip0_1_391)">
<path d="M1 2.70001C1 2.51435 1.07375 2.3363 1.20503 2.20503C1.3363 2.07375 1.51435 2 1.70001 2H3.80003C3.95617 2.00004 4.10782 2.05229 4.23085 2.14844C4.35389 2.24458 4.44125 2.3791 4.47903 2.5306L5.04604 4.80003H21.3002C21.4065 4.80006 21.5114 4.82431 21.607 4.87094C21.7026 4.91757 21.7862 4.98536 21.8517 5.06916C21.9171 5.15296 21.9626 5.25057 21.9847 5.35458C22.0068 5.45859 22.0049 5.56626 21.9792 5.66943L19.8792 14.0695C19.8414 14.221 19.754 14.3555 19.631 14.4517C19.508 14.5478 19.3563 14.6001 19.2002 14.6001H6.60005C6.44391 14.6001 6.29226 14.5478 6.16922 14.4517C6.04619 14.3555 5.95883 14.221 5.92105 14.0695L3.25402 3.40001H1.70001C1.51435 3.40001 1.3363 3.32626 1.20503 3.19499C1.07375 3.06371 1 2.88566 1 2.70001ZM5.39604 6.20004L7.14606 13.2001H18.6542L20.4042 6.20004H5.39604ZM8.00006 17.4001C7.62876 17.4001 7.27266 17.5476 7.01011 17.8102C6.74755 18.0728 6.60005 18.4288 6.60005 18.8002C6.60005 19.1715 6.74755 19.5276 7.01011 19.7901C7.27266 20.0527 7.62876 20.2002 8.00006 20.2002C8.37137 20.2002 8.72747 20.0527 8.99002 19.7901C9.25258 19.5276 9.40008 19.1715 9.40008 18.8002C9.40008 18.4288 9.25258 18.0728 8.99002 17.8102C8.72747 17.5476 8.37137 17.4001 8.00006 17.4001ZM5.20004 18.8002C5.20004 18.0575 5.49504 17.3453 6.02015 16.8202C6.54525 16.2951 7.25745 16.0001 8.00006 16.0001C8.74268 16.0001 9.45488 16.2951 9.97998 16.8202C10.5051 17.3453 10.8001 18.0575 10.8001 18.8002C10.8001 19.5428 10.5051 20.255 9.97998 20.7801C9.45488 21.3052 8.74268 21.6002 8.00006 21.6002C7.25745 21.6002 6.54525 21.3052 6.02015 20.7801C5.49504 20.255 5.20004 19.5428 5.20004 18.8002ZM17.8002 17.4001C17.4288 17.4001 17.0728 17.5476 16.8102 17.8102C16.5476 18.0728 16.4001 18.4288 16.4001 18.8002C16.4001 19.1715 16.5476 19.5276 16.8102 19.7901C17.0728 20.0527 17.4288 20.2002 17.8002 20.2002C18.1715 20.2002 18.5276 20.0527 18.7901 19.7901C19.0527 19.5276 19.2002 19.1715 19.2002 18.8002C19.2002 18.4288 19.0527 18.0728 18.7901 17.8102C18.5276 17.5476 18.1715 17.4001 17.8002 17.4001ZM15.0001 18.8002C15.0001 18.0575 15.2951 17.3453 15.8202 16.8202C16.3453 16.2951 17.0575 16.0001 17.8002 16.0001C18.5428 16.0001 19.255 16.2951 19.7801 16.8202C20.3052 17.3453 20.6002 18.0575 20.6002 18.8002C20.6002 19.5428 20.3052 20.255 19.7801 20.7801C19.255 21.3052 18.5428 21.6002 17.8002 21.6002C17.0575 21.6002 16.3453 21.3052 15.8202 20.7801C15.2951 20.255 15.0001 19.5428 15.0001 18.8002Z" fill="#0595E6"/>
</g>
<defs>
<clipPath id="clip0_1_391">
<rect width="24" height="24" fill="white"/>
</clipPath>
</defs>
</svg>
