<svg width="24" height="24" viewBox="0 0 24 24" fill="none" xmlns="http://www.w3.org/2000/svg">
<g clip-path="url(#clip0_1_365)">
<path d="M11.9999 10.586L17.6571 4.92879C18.0476 4.53832 18.6806 4.53832 19.0711 4.92879C19.4616 5.31925 19.4616 5.95232 19.0711 6.34279L13.4139 12L19.0711 17.6572C19.4616 18.0477 19.4616 18.6807 19.0711 19.0712C18.6806 19.4617 18.0476 19.4617 17.6571 19.0712L11.9999 13.414L6.34268 19.0712C5.95221 19.4617 5.31915 19.4617 4.92868 19.0712C4.53821 18.6807 4.53821 18.0477 4.92868 17.6572L10.5859 12L4.92868 6.34279C4.53821 5.95232 4.53821 5.31925 4.92868 4.92879C5.31915 4.53832 5.95221 4.53832 6.34268 4.92879L11.9999 10.586Z" fill="white"/>
</g>
<defs>
<clipPath id="clip0_1_365">
<rect width="24" height="24" fill="white"/>
</clipPath>
</defs>
</svg>
