<svg width="24" height="24" viewBox="0 0 24 24" fill="none" xmlns="http://www.w3.org/2000/svg">
<circle cx="12" cy="12" r="12" fill="#0595E6"/>
<g clip-path="url(#clip0_1_669)">
<path d="M11.2666 5.40002L17.8659 6.34336L18.8086 12.9434L12.6806 19.0714C12.5556 19.1963 12.386 19.2666 12.2093 19.2666C12.0325 19.2666 11.863 19.1963 11.7379 19.0714L5.13794 12.4714C5.01296 12.3463 4.94275 12.1768 4.94275 12C4.94275 11.8232 5.01296 11.6537 5.13794 11.5287L11.2666 5.40002ZM11.7379 6.81469L6.55194 12L12.2093 17.6567L17.3946 12.4714L16.6879 7.52136L11.7379 6.81469ZM13.1513 11.0574C12.9012 10.8072 12.7607 10.4679 12.7608 10.1141C12.7608 9.93896 12.7953 9.76552 12.8624 9.6037C12.9295 9.44189 13.0277 9.29486 13.1516 9.17102C13.2755 9.04719 13.4225 8.94896 13.5844 8.88196C13.7462 8.81496 13.9197 8.78049 14.0948 8.78052C14.4486 8.78058 14.7878 8.92117 15.0379 9.17136C15.288 9.42155 15.4285 9.76084 15.4284 10.1146C15.4284 10.4684 15.2878 10.8076 15.0376 11.0577C14.7874 11.3078 14.4481 11.4483 14.0944 11.4482C13.7406 11.4481 13.4014 11.3075 13.1513 11.0574Z" fill="white"/>
</g>
<defs>
<clipPath id="clip0_1_669">
<rect width="16" height="16" fill="white" transform="translate(4 4)"/>
</clipPath>
</defs>
</svg>
