<svg width="24" height="24" viewBox="0 0 24 24" fill="none" xmlns="http://www.w3.org/2000/svg">
<g clip-path="url(#clip0_1_379)">
<path d="M12.5 12.5C13.7598 12.5 14.968 11.9996 15.8588 11.1088C16.7496 10.218 17.25 9.00978 17.25 7.75C17.25 6.49022 16.7496 5.28204 15.8588 4.39124C14.968 3.50045 13.7598 3 12.5 3C11.2402 3 10.032 3.50045 9.14124 4.39124C8.25045 5.28204 7.75 6.49022 7.75 7.75C7.75 9.00978 8.25045 10.218 9.14124 11.1088C10.032 11.9996 11.2402 12.5 12.5 12.5ZM15.6667 7.75C15.6667 8.58985 15.333 9.39531 14.7392 9.98917C14.1453 10.583 13.3399 10.9167 12.5 10.9167C11.6601 10.9167 10.8547 10.583 10.2608 9.98917C9.66696 9.39531 9.33333 8.58985 9.33333 7.75C9.33333 6.91015 9.66696 6.10469 10.2608 5.51083C10.8547 4.91696 11.6601 4.58333 12.5 4.58333C13.3399 4.58333 14.1453 4.91696 14.7392 5.51083C15.333 6.10469 15.6667 6.91015 15.6667 7.75ZM22 20.4167C22 22 20.4167 22 20.4167 22H4.58333C4.58333 22 3 22 3 20.4167C3 18.8333 4.58333 14.0833 12.5 14.0833C20.4167 14.0833 22 18.8333 22 20.4167ZM20.4167 20.4103C20.4151 20.0208 20.1728 18.8492 19.0993 17.7757C18.067 16.7433 16.1243 15.6667 12.5 15.6667C8.87417 15.6667 6.933 16.7433 5.90067 17.7757C4.82717 18.8492 4.5865 20.0208 4.58333 20.4103H20.4167Z" fill="#0595E6"/>
</g>
<defs>
<clipPath id="clip0_1_379">
<rect width="24" height="24" fill="white"/>
</clipPath>
</defs>
</svg>
