<svg width="24" height="24" viewBox="0 0 24 24" fill="none" xmlns="http://www.w3.org/2000/svg">
<g clip-path="url(#clip0_1_385)">
<path d="M20.9755 3.68064C20.4326 3.14756 19.788 2.72474 19.0785 2.43637C18.3691 2.148 17.6087 1.99972 16.8408 2C16.073 2.00028 15.3127 2.14913 14.6035 2.43802C13.8942 2.72692 13.2499 3.1502 12.7074 3.68369L11.9992 4.3875L11.2969 3.68521L11.2923 3.68073C10.7496 3.1479 10.1054 2.72523 9.39629 2.43686C8.68723 2.14849 7.92726 2.00007 7.15978 2.00007C6.39229 2.00007 5.63232 2.14849 4.92326 2.43686C4.2142 2.72523 3.56993 3.1479 3.02724 3.68073L2.71174 3.9905C1.61573 5.0666 1 6.5261 1 8.04793C1 9.56976 1.61573 11.0293 2.71174 12.1054L11.0386 20.2808L11.9789 21.2482L12.0013 21.2261L12.0257 21.25L12.9067 20.3373L21.291 12.1052C22.3854 11.0283 23 9.5691 23 8.0478C23 6.5265 22.3854 5.06732 21.291 3.99036L20.9755 3.68064ZM20.2577 11.0909L12.0013 19.1974L3.7448 11.0909C2.9228 10.2838 2.46101 9.18919 2.46101 8.04782C2.46101 6.90645 2.9228 5.81182 3.7448 5.00475L4.06035 4.69498C4.88196 3.88831 5.99616 3.43494 7.15808 3.43451C8.32 3.43408 9.43456 3.88663 10.2568 4.6927L11.996 6.43147L13.7436 4.69498C14.1506 4.29536 14.6338 3.97836 15.1656 3.76208C15.6974 3.5458 16.2674 3.43449 16.843 3.43449C17.4186 3.43449 17.9886 3.5458 18.5204 3.76208C19.0522 3.97836 19.5354 4.29536 19.9424 4.69498L20.2579 5.0047C21.0786 5.81244 21.5396 6.90685 21.5395 8.04783C21.5395 9.18882 21.0785 10.2832 20.2577 11.0909Z" fill="#0595E6"/>
</g>
<defs>
<clipPath id="clip0_1_385">
<rect width="24" height="24" fill="white"/>
</clipPath>
</defs>
</svg>
