<svg width="24" height="24" viewBox="0 0 24 24" fill="none" xmlns="http://www.w3.org/2000/svg">
<circle cx="12" cy="12" r="12" fill="#0595E6"/>
<g clip-path="url(#clip0_1_647)">
<path d="M12 5.33331C13.0609 5.33331 14.0783 5.75474 14.8285 6.50489C15.5786 7.25503 16 8.27245 16 9.33331V9.99998H18.6667V11.3333H17.8887L17.384 17.3886C17.3702 17.5552 17.2942 17.7105 17.1712 17.8238C17.0482 17.937 16.8872 17.9999 16.72 18H7.28004C7.11287 17.9999 6.95184 17.937 6.82885 17.8238C6.70587 17.7105 6.62992 17.5552 6.61604 17.3886L6.11071 11.3333H5.33337V9.99998H8.00004V9.33331C8.00004 8.27245 8.42147 7.25503 9.17161 6.50489C9.92176 5.75474 10.9392 5.33331 12 5.33331ZM16.5507 11.3333H7.44871L7.89337 16.6666H16.106L16.5507 11.3333ZM12.6667 12.6666V15.3333H11.3334V12.6666H12.6667ZM10 12.6666V15.3333H8.66671V12.6666H10ZM15.3334 12.6666V15.3333H14V12.6666H15.3334ZM12 6.66665C11.3159 6.66665 10.6579 6.9296 10.1622 7.40113C9.66644 7.87265 9.37092 8.51667 9.33671 9.19998L9.33337 9.33331V9.99998H14.6667V9.33331C14.6667 8.64915 14.4037 7.99116 13.9322 7.49544C13.4607 6.99972 12.8167 6.70419 12.1334 6.66998L12 6.66665Z" fill="white"/>
</g>
<defs>
<clipPath id="clip0_1_647">
<rect width="16" height="16" fill="white" transform="translate(4 4)"/>
</clipPath>
</defs>
</svg>
