<svg width="24" height="24" viewBox="0 0 24 24" fill="none" xmlns="http://www.w3.org/2000/svg">
<circle cx="12" cy="12" r="12" fill="#0595E6"/>
<g clip-path="url(#clip0_1_633)">
<path d="M15.6667 18C15.0478 18 14.4543 17.7542 14.0168 17.3166C13.5792 16.879 13.3333 16.2855 13.3333 15.6667C13.3333 15.0478 13.5792 14.4543 14.0168 14.0168C14.4543 13.5792 15.0478 13.3333 15.6667 13.3333C16.2855 13.3333 16.879 13.5792 17.3166 14.0168C17.7542 14.4543 18 15.0478 18 15.6667C18 16.2855 17.7542 16.879 17.3166 17.3166C16.879 17.7542 16.2855 18 15.6667 18ZM15.6667 16.6667C15.9319 16.6667 16.1862 16.5613 16.3738 16.3738C16.5613 16.1862 16.6667 15.9319 16.6667 15.6667C16.6667 15.4015 16.5613 15.1471 16.3738 14.9596C16.1862 14.772 15.9319 14.6667 15.6667 14.6667C15.4015 14.6667 15.1471 14.772 14.9596 14.9596C14.772 15.1471 14.6667 15.4015 14.6667 15.6667C14.6667 15.9319 14.772 16.1862 14.9596 16.3738C15.1471 16.5613 15.4015 16.6667 15.6667 16.6667ZM8.33333 10.6667C8.02692 10.6667 7.7235 10.6063 7.44041 10.4891C7.15731 10.3718 6.90009 10.1999 6.68342 9.98325C6.46675 9.76658 6.29488 9.50935 6.17761 9.22626C6.06035 8.94317 6 8.63975 6 8.33333C6 8.02692 6.06035 7.7235 6.17761 7.44041C6.29488 7.15731 6.46675 6.90009 6.68342 6.68342C6.90009 6.46675 7.15731 6.29488 7.44041 6.17761C7.7235 6.06035 8.02692 6 8.33333 6C8.95217 6 9.54566 6.24583 9.98325 6.68342C10.4208 7.121 10.6667 7.71449 10.6667 8.33333C10.6667 8.95217 10.4208 9.54566 9.98325 9.98325C9.54566 10.4208 8.95217 10.6667 8.33333 10.6667ZM8.33333 9.33333C8.59855 9.33333 8.8529 9.22798 9.04044 9.04044C9.22798 8.8529 9.33333 8.59855 9.33333 8.33333C9.33333 8.06812 9.22798 7.81376 9.04044 7.62623C8.8529 7.43869 8.59855 7.33333 8.33333 7.33333C8.06812 7.33333 7.81376 7.43869 7.62623 7.62623C7.43869 7.81376 7.33333 8.06812 7.33333 8.33333C7.33333 8.59855 7.43869 8.8529 7.62623 9.04044C7.81376 9.22798 8.06812 9.33333 8.33333 9.33333ZM16.714 6.34333L17.6567 7.286L7.28667 17.6567L6.344 16.714L16.7133 6.34333H16.714Z" fill="white"/>
</g>
<defs>
<clipPath id="clip0_1_633">
<rect width="16" height="16" fill="white" transform="translate(4 4)"/>
</clipPath>
</defs>
</svg>
