<svg width="238" height="45" viewBox="0 0 238 45" fill="none" xmlns="http://www.w3.org/2000/svg">
<g clip-path="url(#clip0_1_353)">
<path fill-rule="evenodd" clip-rule="evenodd" d="M166.315 26.7941L159.119 17.7009V26.7941H154.391V6.20588H159.119V14.3545L165.698 6.20588H171.66L163.848 15.8824L172.482 26.7941H166.315ZM145.551 6.20588H150.279V26.7941H145.551V6.20588ZM138.356 27C137.347 27 136.451 26.5149 135.889 25.7649L135.888 25.7629L128.282 12.7941L128.292 12.7678C128.289 12.769 128.286 12.7702 128.282 12.7715V12.7941V26.7941H123.554V9.5C123.554 7.56697 125.119 6 127.049 6C128.384 6 129.544 6.75085 130.132 7.85335L136.711 18.9706V6H141.439V23.7059L141.43 23.7158C141.434 23.7808 141.439 23.8457 141.439 23.9118C141.439 25.6173 140.059 27 138.356 27ZM110.397 26.7941C108.921 26.7941 107.724 25.5959 107.724 24.1176V22.0588V6.20588H112.453V22.0588H120.676V26.7941H112.453H110.397ZM98.8843 6.20588H103.613V26.7941H98.8843V6.20588ZM83.4657 26.7941H78.7374V6.20588H83.4657C83.4657 6.20588 89.4483 6.02944 92.1001 8.26471C94.7698 10.515 95.595 13.0056 95.595 16.5C95.595 19.9946 94.7698 22.485 92.1001 24.7353C89.4483 26.9708 83.4657 26.7941 83.4657 26.7941ZM87.5773 10.7353C86.0898 10.1298 83.4657 10.3235 83.4657 10.3235V22.6765C83.4657 22.6765 86.0898 22.8704 87.5773 22.2647C90.106 21.2353 90.8666 19.2337 90.8666 16.5C90.8666 13.7663 90.106 11.7647 87.5773 10.7353ZM66.197 27C60.7365 27 56.9458 22.8824 56.9458 16.5C56.9458 10.1176 60.7365 6 66.197 6C71.6574 6 75.4481 10.1176 75.4481 16.5C75.4481 22.8824 71.6574 27 66.197 27ZM66.197 10.1176C63.1451 10.1176 61.6742 13.4437 61.6742 16.5C61.6742 19.5563 63.1451 22.8824 66.197 22.8824C69.2488 22.8824 70.7197 19.5563 70.7197 16.5C70.7197 13.4437 69.2488 10.1176 66.197 10.1176ZM44.611 26.7941C43.1349 26.7941 41.9384 25.5959 41.9384 24.1176V22.0588V6.20588H46.6668V22.0588H54.89V26.7941H46.6668H44.611ZM29.398 27C23.9376 27 20.1469 22.8824 20.1469 16.5C20.1469 10.1176 23.9376 6 29.398 6C34.8585 6 38.6492 10.1176 38.6492 16.5C38.6492 22.8824 34.8585 27 29.398 27ZM29.398 10.1176C26.3462 10.1176 24.8753 13.4437 24.8753 16.5C24.8753 19.5563 26.3462 22.8824 29.398 22.8824C32.4499 22.8824 33.9208 19.5563 33.9208 16.5C33.9208 13.4437 32.4499 10.1176 29.398 10.1176ZM12.3348 18.3529H4.72835V26.7941H0V18.3529V13.6176V6.20588H4.72835V13.6176H12.3348V6.20588H17.0632V13.6176V18.3529V26.7941H12.3348V18.3529Z" fill="#2A62A0"/>
<path fill-rule="evenodd" clip-rule="evenodd" d="M190.899 29.2622L180.791 31.842C177.599 32.6567 174.5 30.2187 174.5 26.8916V5.10865C174.5 1.746 177.661 -0.698556 180.874 0.180313L190.981 2.9441C193.184 3.54662 194.714 5.56641 194.714 7.87243V24.3118C194.714 26.6501 193.142 28.6893 190.899 29.2622ZM183.975 12.8C182.231 12.8 180.817 14.2327 180.817 16C180.817 17.7673 182.231 19.2 183.975 19.2C185.72 19.2 187.134 17.7673 187.134 16C187.134 14.2327 185.72 12.8 183.975 12.8Z" fill="#F59E31"/>
<path fill-rule="evenodd" clip-rule="evenodd" d="M211.279 27.7723L204.23 18.6634V27.7725H199V5.00023H204.23C204.23 5.00023 206.163 5.00023 208.55 5.00023C212.318 5.00023 215.372 8.05877 215.372 11.8317C215.372 14.9927 213.228 17.6511 210.317 18.4309L217.646 27.7723H211.279ZM207.641 9.32673C205.481 9.32673 204.23 9.32673 204.23 9.32673V14.3366C204.23 14.3366 205.481 14.3366 207.641 14.3366C209.022 14.3366 210.142 13.2151 210.142 11.8317C210.142 10.4483 209.022 9.32673 207.641 9.32673Z" fill="#F59E31"/>
<path fill-rule="evenodd" clip-rule="evenodd" d="M228.453 28C223.666 28 219.13 25.2828 219.13 20.0297V5H224.36C224.36 5 224.36 13.9217 224.36 19.3465C224.36 21.5099 226.063 23.4455 228.453 23.4455C230.843 23.4455 232.546 21.5099 232.546 19.3465C232.546 13.9217 232.546 5 232.546 5H237.776V20.0297C237.776 25.358 233.24 28 228.453 28Z" fill="#F59E31"/>
<path d="M0.197902 36.3H1.0009V42.68L5.9289 36.3H6.6659V44H5.8629V37.631L0.934902 44H0.197902V36.3ZM16.0293 36.3V44H15.2263V40.447H10.4083V44H9.59431V36.3H10.4083V39.732H15.2263V36.3H16.0293ZM23.9965 37.004H21.2905V44H20.4875V37.004H17.7815V36.3H23.9965V37.004ZM31.2003 43.296V44H25.7553V36.3H31.0353V37.004H26.5693V39.743H30.5513V40.436H26.5693V43.296H31.2003ZM36.2183 36.3C37.2009 36.3 37.9709 36.5347 38.5283 37.004C39.0856 37.4733 39.3643 38.1187 39.3643 38.94C39.3643 39.7613 39.0856 40.4067 38.5283 40.876C37.9709 41.338 37.2009 41.569 36.2183 41.569H34.1503V44H33.3363V36.3H36.2183ZM36.1963 40.854C36.9589 40.854 37.5419 40.689 37.9453 40.359C38.3486 40.0217 38.5503 39.5487 38.5503 38.94C38.5503 38.3167 38.3486 37.84 37.9453 37.51C37.5419 37.1727 36.9589 37.004 36.1963 37.004H34.1503V40.854H36.1963ZM47.8034 36.3V44H47.0004V40.447H42.1824V44H41.3684V36.3H42.1824V39.732H47.0004V36.3H47.8034ZM56.1776 43.296V44H50.7326V36.3H56.0126V37.004H51.5466V39.743H55.5286V40.436H51.5466V43.296H56.1776ZM63.3516 37.004H60.6456V44H59.8426V37.004H57.1366V36.3H63.3516V37.004ZM64.1179 40.678H66.9999V41.36H64.1179V40.678ZM77.2831 36.3V44H76.5021V37.84L73.4771 43.021H73.0921L70.0671 37.873V44H69.2861V36.3H69.9571L73.3011 42.009L76.6121 36.3H77.2831ZM85.1359 41.943H80.8459L79.9219 44H79.0749L82.5949 36.3H83.3979L86.9179 44H86.0599L85.1359 41.943ZM84.8389 41.283L82.9909 37.147L81.1429 41.283H84.8389ZM93.6184 37.004H89.5154L89.5264 44H88.7234V36.3H93.6184V37.004ZM98.8261 41.943H94.5361L93.6121 44H92.7651L96.2851 36.3H97.0881L100.608 44H99.7501L98.8261 41.943ZM98.5291 41.283L96.6811 37.147L94.8331 41.283H98.5291ZM105.758 39.974C106.264 40.0987 106.66 40.326 106.946 40.656C107.239 40.986 107.386 41.382 107.386 41.844C107.386 42.2913 107.246 42.6837 106.968 43.021C106.689 43.3583 106.319 43.6187 105.857 43.802C105.395 43.978 104.892 44.066 104.35 44.066C103.836 44.066 103.33 43.9853 102.832 43.824C102.34 43.6553 101.897 43.406 101.501 43.076L101.798 42.493C102.135 42.779 102.52 42.999 102.953 43.153C103.385 43.2997 103.822 43.373 104.262 43.373C104.68 43.373 105.065 43.307 105.417 43.175C105.769 43.043 106.047 42.856 106.253 42.614C106.465 42.3647 106.572 42.0713 106.572 41.734C106.572 41.2867 106.396 40.942 106.044 40.7C105.692 40.458 105.197 40.337 104.559 40.337H102.909V39.677H104.515C105.057 39.677 105.479 39.5633 105.78 39.336C106.088 39.1013 106.242 38.7787 106.242 38.368C106.242 37.9133 106.047 37.5577 105.659 37.301C105.27 37.037 104.782 36.905 104.196 36.905C103.829 36.905 103.459 36.96 103.085 37.07C102.711 37.1727 102.355 37.3303 102.018 37.543L101.743 36.872C102.505 36.4173 103.33 36.19 104.218 36.19C104.738 36.19 105.215 36.2743 105.648 36.443C106.08 36.6117 106.421 36.8537 106.671 37.169C106.927 37.4843 107.056 37.8547 107.056 38.28C107.056 38.6907 106.942 39.0463 106.715 39.347C106.487 39.6403 106.168 39.8493 105.758 39.974ZM109.737 36.3H110.54V42.68L115.468 36.3H116.205V44H115.402V37.631L110.474 44H109.737V36.3ZM125.568 36.3V44H124.765V40.447H119.947V44H119.133V36.3H119.947V39.732H124.765V36.3H125.568ZM137.745 36.3V44H136.942V37.004H133.224L133.136 39.578C133.1 40.6413 133.012 41.4993 132.872 42.152C132.74 42.7973 132.535 43.2813 132.256 43.604C131.978 43.9193 131.607 44.077 131.145 44.077C130.947 44.077 130.742 44.0513 130.529 44L130.595 43.274C130.72 43.3033 130.841 43.318 130.958 43.318C131.281 43.318 131.541 43.1897 131.739 42.933C131.945 42.6763 132.099 42.2803 132.201 41.745C132.304 41.2023 132.374 40.4873 132.41 39.6L132.52 36.3H137.745ZM146.888 36.234C147.614 36.234 148.27 36.4027 148.857 36.74C149.444 37.0773 149.902 37.5467 150.232 38.148C150.569 38.742 150.738 39.4093 150.738 40.15C150.738 40.8907 150.569 41.5617 150.232 42.163C149.902 42.757 149.444 43.2227 148.857 43.56C148.27 43.8973 147.614 44.066 146.888 44.066C146.199 44.066 145.572 43.912 145.007 43.604C144.442 43.296 143.988 42.867 143.643 42.317C143.298 41.767 143.104 41.1473 143.06 40.458H141.476V44H140.673V36.3H141.476V39.721H143.071C143.13 39.0537 143.331 38.456 143.676 37.928C144.028 37.3927 144.483 36.9783 145.04 36.685C145.597 36.3843 146.213 36.234 146.888 36.234ZM146.888 43.34C147.46 43.34 147.977 43.2043 148.439 42.933C148.901 42.6543 149.264 42.273 149.528 41.789C149.792 41.305 149.924 40.7587 149.924 40.15C149.924 39.5413 149.792 38.995 149.528 38.511C149.264 38.027 148.901 37.6493 148.439 37.378C147.977 37.0993 147.46 36.96 146.888 36.96C146.323 36.96 145.81 37.0993 145.348 37.378C144.886 37.6493 144.523 38.027 144.259 38.511C143.995 38.995 143.863 39.5413 143.863 40.15C143.863 40.7587 143.995 41.305 144.259 41.789C144.523 42.273 144.886 42.6543 145.348 42.933C145.81 43.2043 146.323 43.34 146.888 43.34ZM153.013 36.3H158.645V36.993H153.816V39.512H156.335C157.244 39.512 157.933 39.699 158.403 40.073C158.879 40.447 159.118 40.9897 159.118 41.701C159.118 42.4417 158.861 43.01 158.348 43.406C157.842 43.802 157.112 44 156.159 44H153.013V36.3ZM156.148 43.351C156.859 43.351 157.394 43.2153 157.754 42.944C158.12 42.6727 158.304 42.2693 158.304 41.734C158.304 41.206 158.124 40.8137 157.765 40.557C157.413 40.293 156.874 40.161 156.148 40.161H153.816V43.351H156.148ZM164.712 44.066C163.949 44.066 163.256 43.8973 162.633 43.56C162.017 43.2153 161.533 42.746 161.181 42.152C160.836 41.558 160.664 40.8907 160.664 40.15C160.664 39.4093 160.836 38.742 161.181 38.148C161.533 37.554 162.017 37.0883 162.633 36.751C163.256 36.4063 163.949 36.234 164.712 36.234C165.475 36.234 166.16 36.4027 166.769 36.74C167.385 37.0773 167.869 37.5467 168.221 38.148C168.573 38.742 168.749 39.4093 168.749 40.15C168.749 40.8907 168.573 41.5617 168.221 42.163C167.869 42.757 167.385 43.2227 166.769 43.56C166.16 43.8973 165.475 44.066 164.712 44.066ZM164.712 43.34C165.321 43.34 165.871 43.2043 166.362 42.933C166.853 42.6543 167.238 42.273 167.517 41.789C167.796 41.2977 167.935 40.7513 167.935 40.15C167.935 39.5487 167.796 39.006 167.517 38.522C167.238 38.0307 166.853 37.6493 166.362 37.378C165.871 37.0993 165.321 36.96 164.712 36.96C164.103 36.96 163.55 37.0993 163.051 37.378C162.56 37.6493 162.171 38.0307 161.885 38.522C161.606 39.006 161.467 39.5487 161.467 40.15C161.467 40.7513 161.606 41.2977 161.885 41.789C162.171 42.273 162.56 42.6543 163.051 42.933C163.55 43.2043 164.103 43.34 164.712 43.34ZM171.021 36.3H171.824V42.68L176.752 36.3H177.489V44H176.686V37.631L171.758 44H171.021V36.3ZM174.233 35.739C173.683 35.739 173.247 35.6143 172.924 35.365C172.609 35.1157 172.448 34.7673 172.44 34.32H173.045C173.053 34.6133 173.163 34.8443 173.375 35.013C173.588 35.1817 173.874 35.266 174.233 35.266C174.585 35.266 174.868 35.1817 175.08 35.013C175.3 34.8443 175.414 34.6133 175.421 34.32H176.026C176.019 34.7673 175.854 35.1157 175.531 35.365C175.209 35.6143 174.776 35.739 174.233 35.739ZM188.665 37.004H185.959V44H185.156V37.004H182.45V36.3H188.665V37.004ZM195.869 43.296V44H190.424V36.3H195.704V37.004H191.238V39.743H195.22V40.436H191.238V43.296H195.869ZM197.985 36.3L200.174 39.347L202.352 36.3H203.309L200.68 39.996L203.518 44H202.561L200.174 40.689L197.787 44H196.852L199.679 40.029L197.05 36.3H197.985ZM211.559 36.3V44H210.756V40.447H205.938V44H205.124V36.3H205.938V39.732H210.756V36.3H211.559ZM214.488 36.3H215.291V42.68L220.219 36.3H220.956V44H220.153V37.631L215.225 44H214.488V36.3ZM226.436 40.469H224.676V44H223.884V36.3H224.676V39.754H226.436L229.043 36.3H229.923L227.063 40.04L230.088 44H229.153L226.436 40.469ZM231.669 36.3H232.472V42.68L237.4 36.3H238.137V44H237.334V37.631L232.406 44H231.669V36.3Z" fill="#2A62A0"/>
</g>
<defs>
<clipPath id="clip0_1_353">
<rect width="238" height="45" fill="white"/>
</clipPath>
</defs>
</svg>
